<svg xmlns="http://www.w3.org/2000/svg" xmlns:xlink="http://www.w3.org/1999/xlink" viewBox="0 0 1860 1332" id="couple-doing-sale-shopping">
  <defs>
    <linearGradient id="a" x1="1216.4" x2="1295.33" y1="1077.47" y2="1077.47" gradientUnits="userSpaceOnUse">
      <stop offset="0" stop-color="#007c9a"></stop>
      <stop offset="1" stop-color="#009bb2"></stop>
    </linearGradient>
    <linearGradient xlink:href="#a" id="p" x1="1119.61" x2="1068.65" y1="1101.71" y2="1066.29"></linearGradient>
    <linearGradient id="b" x1="1176.25" x2="1228.33" y1="1065.43" y2="950.54" gradientUnits="userSpaceOnUse">
      <stop offset="0" stop-color="#005c82"></stop>
      <stop offset="1" stop-color="#007897"></stop>
    </linearGradient>
    <linearGradient xlink:href="#a" id="q" x1="605.03" x2="549.31" y1="1102.41" y2="1076.37"></linearGradient>
    <linearGradient xlink:href="#b" id="r" x1="766.63" x2="822.4" y1="1096.91" y2="1080.2"></linearGradient>
    <linearGradient xlink:href="#a" id="s" x1="700.4" x2="779.1" y1="1095.35" y2="1057.7"></linearGradient>
    <linearGradient xlink:href="#b" id="t" x1="649.85" x2="613.85" y1="1063.58" y2="979.83"></linearGradient>
    <linearGradient id="c" x1="1461.8" x2="1536.1" y1="311.77" y2="446.96" gradientUnits="userSpaceOnUse">
      <stop offset="0" stop-color="#ffb680"></stop>
      <stop offset="1" stop-color="#fc9e5e"></stop>
    </linearGradient>
    <linearGradient id="d" x1="1602.29" x2="1543.44" y1="552.08" y2="492.6" gradientUnits="userSpaceOnUse">
      <stop offset="0" stop-color="#002045"></stop>
      <stop offset="1" stop-color="#00001e"></stop>
    </linearGradient>
    <linearGradient xlink:href="#c" id="u" x1="1573.12" x2="1568.05" y1="485.26" y2="510.06"></linearGradient>
    <linearGradient xlink:href="#d" id="v" x1="1602.32" x2="1585.98" y1="1001.47" y2="816.11"></linearGradient>
    <linearGradient xlink:href="#d" id="w" x1="1499.2" x2="1524.1" y1="866.84" y2="771.48"></linearGradient>
    <linearGradient xlink:href="#c" id="x" x1="1431.79" x2="1443.47" y1="471" y2="531.13"></linearGradient>
    <linearGradient xlink:href="#d" id="y" x1="1522.18" x2="1458.99" y1="545.84" y2="558.73"></linearGradient>
    <linearGradient xlink:href="#c" id="z" x1="1602.49" x2="1598.53" y1="1071.27" y2="1038.08"></linearGradient>
    <linearGradient xlink:href="#d" id="A" x1="1583.21" x2="1566.87" y1="1003.15" y2="817.79"></linearGradient>
    <linearGradient xlink:href="#c" id="B" x1="1480.56" x2="1481.45" y1="1071.18" y2="1036.21"></linearGradient>
    <linearGradient xlink:href="#d" id="C" x1="1495.37" x2="1520.26" y1="865.84" y2="770.48"></linearGradient>
    <linearGradient xlink:href="#d" id="D" x1="1578.93" x2="1592.14" y1="489.28" y2="426.28"></linearGradient>
    <linearGradient xlink:href="#c" id="E" x1="1564.2" x2="1575.08" y1="473.05" y2="459.86"></linearGradient>
    <linearGradient xlink:href="#c" id="F" x1="1454.94" x2="1529.24" y1="315.54" y2="450.73"></linearGradient>
    <linearGradient xlink:href="#c" id="G" x1="1462.28" x2="1451.91" y1="290.3" y2="281.75"></linearGradient>
    <linearGradient xlink:href="#c" id="H" x1="1454.29" x2="1443.91" y1="300" y2="291.44"></linearGradient>
    <linearGradient id="e" x1="1608.81" x2="1608.81" y1="1083.68" y2="1107.31" gradientUnits="userSpaceOnUse">
      <stop offset="0" stop-color="#002045"></stop>
      <stop offset="1" stop-color="#00001e"></stop>
    </linearGradient>
    <linearGradient xlink:href="#c" id="I" x1="1606.44" x2="1602.83" y1="1071.19" y2="1040.87"></linearGradient>
    <linearGradient xlink:href="#c" id="J" x1="1458.2" x2="1459.1" y1="1070.61" y2="1035.63"></linearGradient>
    <linearGradient xlink:href="#e" id="K" x1="-8582.19" x2="-8523.01" y1="1092.28" y2="1090.86" gradientTransform="matrix(-1 0 0 1 -7098.65 0)"></linearGradient>
    <linearGradient xlink:href="#d" id="L" x1="416.75" x2="414.45" y1="426.37" y2="517.52"></linearGradient>
    <linearGradient xlink:href="#c" id="M" x1="621.89" x2="545.48" y1="640.13" y2="600.3"></linearGradient>
    <linearGradient id="f" x1="458.51" x2="495.41" y1="536.96" y2="581.77" gradientUnits="userSpaceOnUse">
      <stop offset="0" stop-color="#bf1402"></stop>
      <stop offset="1" stop-color="#9f0000"></stop>
    </linearGradient>
    <linearGradient xlink:href="#c" id="N" x1="439.42" x2="438.27" y1="515.53" y2="454.82"></linearGradient>
    <linearGradient xlink:href="#c" id="O" x1="442.41" x2="444.33" y1="522.74" y2="564"></linearGradient>
    <linearGradient xlink:href="#c" id="P" x1="294.85" x2="413.06" y1="854.78" y2="834.86"></linearGradient>
    <linearGradient xlink:href="#c" id="Q" x1="424.37" x2="477.22" y1="1033.32" y2="849.49"></linearGradient>
    <linearGradient xlink:href="#c" id="R" x1="468.51" x2="462.77" y1="554.75" y2="606.83"></linearGradient>
    <linearGradient xlink:href="#c" id="S" x1="404.02" x2="456.87" y1="1027.47" y2="843.64"></linearGradient>
    <linearGradient xlink:href="#c" id="T" x1="293.16" x2="411.37" y1="844.74" y2="824.83"></linearGradient>
    <linearGradient xlink:href="#c" id="U" x1="347.06" x2="388.04" y1="507.02" y2="597.4"></linearGradient>
    <linearGradient xlink:href="#d" id="V" x1="444.92" x2="469.43" y1="674.72" y2="823.83"></linearGradient>
    <linearGradient xlink:href="#c" id="W" x1="616.55" x2="540.15" y1="650.36" y2="610.53"></linearGradient>
    <linearGradient xlink:href="#c" id="X" x1="-467.48" x2="-483.31" y1="-1507.94" y2="-1611.35" gradientTransform="rotate(21.57 -5973.886 1623.491)"></linearGradient>
    <linearGradient xlink:href="#c" id="Y" x1="386.37" x2="370.54" y1="730.88" y2="627.47"></linearGradient>
    <linearGradient xlink:href="#f" id="Z" x1="401.9" x2="361.72" y1="546.05" y2="583.58"></linearGradient>
    <linearGradient id="g" x1="418.79" x2="435.07" y1="793.22" y2="775.1" gradientUnits="userSpaceOnUse">
      <stop offset="0" stop-color="#010013" stop-opacity="0"></stop>
      <stop offset="1" stop-color="#010013"></stop>
    </linearGradient>
    <linearGradient xlink:href="#g" id="aa" x1="476.36" x2="479.42" y1="686.7" y2="726.62"></linearGradient>
    <linearGradient id="ab" x1="394.2" x2="468.75" y1="573.78" y2="627.91" gradientUnits="userSpaceOnUse">
      <stop offset="0" stop-color="#bf1402"></stop>
      <stop offset="1" stop-color="#ad0000"></stop>
    </linearGradient>
    <linearGradient id="h" x1="264.76" x2="264.76" y1="778.86" y2="798.06" gradientUnits="userSpaceOnUse">
      <stop offset="0" stop-color="#009fb7"></stop>
      <stop offset="1" stop-color="#00779b"></stop>
    </linearGradient>
    <linearGradient xlink:href="#h" id="ac" x1="352.29" x2="352.29"></linearGradient>
    <linearGradient id="i" x1="272.26" x2="283.88" y1="764.05" y2="764.05" gradientUnits="userSpaceOnUse">
      <stop offset="0" stop-color="#009fb7"></stop>
      <stop offset="1" stop-color="#227599"></stop>
    </linearGradient>
    <linearGradient xlink:href="#i" id="ad" x1="344.04" x2="333.07"></linearGradient>
    <linearGradient xlink:href="#c" id="ae" x1="312.3" x2="317.28" y1="752.51" y2="774.96"></linearGradient>
    <linearGradient xlink:href="#c" id="af" x1="304.64" x2="309.62" y1="754.21" y2="776.66"></linearGradient>
    <linearGradient id="ag" x1="1032.97" x2="1032.97" y1="425.07" y2="591.67" gradientUnits="userSpaceOnUse">
      <stop offset="0" stop-color="#009fb7"></stop>
      <stop offset="1" stop-color="#006c91"></stop>
    </linearGradient>
    <linearGradient id="j" x1="953.39" x2="1139.28" y1="531.04" y2="531.04" gradientUnits="userSpaceOnUse">
      <stop offset="0" stop-color="#003e6e" stop-opacity="0"></stop>
      <stop offset=".25" stop-color="#003e6e" stop-opacity=".75"></stop>
      <stop offset=".75" stop-color="#003e6e" stop-opacity=".75"></stop>
      <stop offset="1" stop-color="#003e6e" stop-opacity="0"></stop>
    </linearGradient>
    <linearGradient xlink:href="#j" id="ah" y1="473" y2="473"></linearGradient>
    <linearGradient xlink:href="#j" id="ai" y1="414.97" y2="414.97"></linearGradient>
    <linearGradient id="aj" x1="992.39" x2="992.39" y1="594.34" y2="510.85" gradientUnits="userSpaceOnUse">
      <stop offset="0" stop-color="#002458"></stop>
      <stop offset=".33" stop-color="#00416d"></stop>
      <stop offset=".64" stop-color="#00416d"></stop>
      <stop offset="1" stop-color="#002458"></stop>
    </linearGradient>
    <linearGradient id="ak" x1="954.61" x2="954.61" y1="720.34" y2="569.13" gradientUnits="userSpaceOnUse">
      <stop offset="0" stop-color="#007ea0"></stop>
      <stop offset="1" stop-color="#009fb7"></stop>
    </linearGradient>
    <linearGradient id="al" x1="941.69" x2="941.69" y1="703.24" y2="629.19" gradientUnits="userSpaceOnUse">
      <stop offset="0" stop-color="#000843"></stop>
      <stop offset="1" stop-color="#00275a"></stop>
    </linearGradient>
    <linearGradient id="k" x1="1388.63" x2="1340.12" y1="359.95" y2="348.59" gradientTransform="rotate(80 1353.21 351.655)" gradientUnits="userSpaceOnUse">
      <stop offset="0" stop-color="#0087a5"></stop>
      <stop offset=".62" stop-color="#006f94"></stop>
      <stop offset="1" stop-color="#00668e"></stop>
    </linearGradient>
    <linearGradient xlink:href="#k" id="am" x1="1388.58" x2="1340.84" y1="312.59" y2="322.67" gradientTransform="rotate(-80 1353.208 320.058)"></linearGradient>
    <linearGradient id="m" x1="1136.56" x2="1276.13" y1="305.01" y2="305.01" gradientUnits="userSpaceOnUse">
      <stop offset="0" stop-color="#00416d"></stop>
      <stop offset=".58" stop-color="#002d5e"></stop>
      <stop offset="1" stop-color="#002458"></stop>
    </linearGradient>
    <linearGradient id="l" x1="975.23" x2="1058.07" y1="274.6" y2="234.24" gradientUnits="userSpaceOnUse">
      <stop offset="0" stop-color="#ffa585"></stop>
      <stop offset="1" stop-color="#ff4a0b"></stop>
    </linearGradient>
    <linearGradient xlink:href="#l" id="an" x1="1111.8" x2="1030.02" y1="284.74" y2="321.46"></linearGradient>
    <linearGradient xlink:href="#m" id="ao" x1="1138.09" x2="1270.1" y1="367.09" y2="367.09"></linearGradient>
    <linearGradient id="n" x1="859.16" x2="834.2" y1="783.2" y2="783.2" gradientUnits="userSpaceOnUse">
      <stop offset="0" stop-color="#ff4a0b"></stop>
      <stop offset="1" stop-color="#e83d08"></stop>
    </linearGradient>
    <linearGradient xlink:href="#n" id="ap" x1="-11809.25" x2="-11834.21" y1="2670.09" y2="2670.09" gradientTransform="translate(12626.5 -1886.9)"></linearGradient>
    <linearGradient xlink:href="#n" id="aq" x1="1012.2" x2="987.24"></linearGradient>
    <linearGradient xlink:href="#n" id="ar" x1="-11962.29" x2="-11987.25" y1="2670.09" y2="2670.09" gradientTransform="translate(12932.58 -1886.9)"></linearGradient>
    <linearGradient xlink:href="#n" id="as" x1="935.68" x2="910.72" y1="836.48" y2="836.48"></linearGradient>
    <linearGradient xlink:href="#n" id="at" x1="-11885.77" x2="-11910.73" y1="2616.81" y2="2616.81" gradientTransform="translate(12779.54 -1780.33)"></linearGradient>
    <linearGradient xlink:href="#n" id="au" x1="1088.72" x2="1063.76" y1="836.48" y2="836.48"></linearGradient>
    <linearGradient xlink:href="#n" id="av" x1="-12038.81" x2="-12063.77" y1="2616.81" y2="2616.81" gradientTransform="translate(13085.62 -1780.33)"></linearGradient>
    <linearGradient xlink:href="#n" id="aw" y1="889.77" y2="889.77"></linearGradient>
    <linearGradient xlink:href="#n" id="ax" x1="-11809.25" x2="-11834.21" y1="2563.52" y2="2563.52" gradientTransform="translate(12626.5 -1673.76)"></linearGradient>
    <linearGradient xlink:href="#n" id="ay" x1="1012.2" x2="987.24" y1="889.77" y2="889.77"></linearGradient>
    <linearGradient xlink:href="#n" id="az" x1="-11962.29" x2="-11987.25" y1="2563.52" y2="2563.52" gradientTransform="translate(12932.58 -1673.76)"></linearGradient>
    <linearGradient xlink:href="#n" id="aA" x1="-6413.04" x2="-6437.99" y1="-4510.87" y2="-4510.87" gradientTransform="translate(7251.24 5368.31)"></linearGradient>
    <linearGradient xlink:href="#n" id="aB" x1="-4537.05" x2="-4562.01" y1="7964.17" y2="7964.17" gradientTransform="translate(5375.26 -7148.64)"></linearGradient>
    <linearGradient xlink:href="#n" id="aC" x1="-6368.11" x2="-6384.82" y1="-4587.4" y2="-4587.4" gradientTransform="translate(7279.13 5493.47)"></linearGradient>
    <linearGradient xlink:href="#n" id="aD" x1="-4590.34" x2="-4615.3" y1="8040.69" y2="8040.69" gradientTransform="translate(5505.06 -7171.87)"></linearGradient>
    <linearGradient xlink:href="#n" id="aE" x1="-6368.11" x2="-6384.82" y1="-4740.44" y2="-4740.44" gradientTransform="translate(7432.17 5646.51)"></linearGradient>
    <linearGradient xlink:href="#n" id="aF" x1="-4590.34" x2="-4615.3" y1="8193.73" y2="8193.73" gradientTransform="translate(5658.11 -7324.92)"></linearGradient>
    <linearGradient xlink:href="#n" id="aG" x1="-6413.04" x2="-6437.99" y1="-4663.92" y2="-4663.92" gradientTransform="translate(7404.28 5521.35)"></linearGradient>
    <linearGradient xlink:href="#n" id="aH" x1="-4537.05" x2="-4562.01" y1="8117.21" y2="8117.21" gradientTransform="translate(5528.3 -7301.68)"></linearGradient>
    <linearGradient xlink:href="#n" id="aI" x1="-6466.32" x2="-6491.28" y1="-4587.4" y2="-4587.4" gradientTransform="translate(7381.05 5391.55)"></linearGradient>
    <linearGradient xlink:href="#n" id="aJ" x1="-4492.13" x2="-4508.83" y1="8040.69" y2="8040.69" gradientTransform="translate(5403.15 -7273.79)"></linearGradient>
    <linearGradient xlink:href="#n" id="aK" x1="-6466.32" x2="-6491.28" y1="-4740.44" y2="-4740.44" gradientTransform="translate(7534.09 5544.59)"></linearGradient>
    <linearGradient xlink:href="#n" id="aL" x1="-4492.13" x2="-4508.83" y1="8193.73" y2="8193.73" gradientTransform="translate(5556.19 -7426.83)"></linearGradient>
    <linearGradient id="aM" x1="750.46" x2="750.46" y1="834.47" y2="931.39" gradientUnits="userSpaceOnUse">
      <stop offset="0" stop-color="#00416d"></stop>
      <stop offset="1" stop-color="#00003e"></stop>
    </linearGradient>
    <linearGradient id="aN" x1="959.39" x2="761.58" y1="729.91" y2="729.91" gradientUnits="userSpaceOnUse">
      <stop offset="0" stop-color="#00416d"></stop>
      <stop offset="1" stop-color="#00003e"></stop>
    </linearGradient>
    <linearGradient id="aO" x1="728.74" x2="728.74" y1="781.38" y2="686.91" gradientUnits="userSpaceOnUse">
      <stop offset="0" stop-color="#00416d"></stop>
      <stop offset="1" stop-color="#000d47"></stop>
    </linearGradient>
    <linearGradient id="o" x1="916.86" x2="876.07" y1="1049.64" y2="1049.64" gradientUnits="userSpaceOnUse">
      <stop offset="0" stop-color="#00416d"></stop>
      <stop offset="1" stop-color="#00184f"></stop>
    </linearGradient>
    <linearGradient id="aP" x1="699.68" x2="772.44" y1="1017.49" y2="1046.98" gradientUnits="userSpaceOnUse">
      <stop offset="0" stop-color="#00416d"></stop>
      <stop offset="1" stop-color="#000d47"></stop>
    </linearGradient>
    <linearGradient xlink:href="#o" id="aQ" x1="943.03" x2="1000.5"></linearGradient>
    <linearGradient id="aR" x1="1143.49" x2="1112.07" y1="1049.64" y2="1049.64" gradientUnits="userSpaceOnUse">
      <stop offset="0" stop-color="#00416d"></stop>
      <stop offset="1" stop-color="#000d47"></stop>
    </linearGradient>
    <linearGradient xlink:href="#j" id="aS" x1="849.19" x2="1035.08" y1="569.99" y2="569.99"></linearGradient>
    <linearGradient xlink:href="#c" id="aT" x1="1435.46" x2="1442.31" y1="284.49" y2="291.73"></linearGradient>
    <linearGradient xlink:href="#c" id="aU" x1="1397.37" x2="1387.22" y1="420.87" y2="430.51"></linearGradient>
    <linearGradient xlink:href="#c" id="aV" x1="1401.92" x2="1391.77" y1="425.66" y2="435.3"></linearGradient>
    <linearGradient xlink:href="#c" id="aW" x1="1390.22" x2="1401.9" y1="479.08" y2="539.2"></linearGradient>
    <linearGradient id="aX" x1="1152.41" x2="1152.41" y1="640.17" y2="703.76" gradientUnits="userSpaceOnUse">
      <stop offset="0" stop-color="#ff4a0b"></stop>
      <stop offset="1" stop-color="#f82f0e"></stop>
    </linearGradient>
    <linearGradient id="aY" x1="1102.27" x2="1102.27" y1="678.38" y2="652.16" gradientUnits="userSpaceOnUse">
      <stop offset="0" stop-color="#ff9723"></stop>
      <stop offset="1" stop-color="#ffb636"></stop>
    </linearGradient>
  </defs>
  <g>
    <path fill="url(#a)" d="m1294.38,1065.27c-24.82-25.61-76.63-9.26-102.55,36.5h102.89c3.54,0,6.6-2.42,7.48-5.85,2.6-10.08,1.56-20.98-7.82-30.66Z"></path>
    <path fill="url(#p)" d="m1055.33,1101.78h86.98c-2.67-13.98-9.16-33.35-24.94-46.23-26.02-21.25-81.9-3.6-62.04,46.23Z"></path>
    <path fill="url(#b)" d="m1204.34,980.11c18.16-18.79,25.39-61.36,4-61.75-.44,0-.88.02-1.31.07-10.74,1.37-16.73,22.03-9.92,44.99,1.63,5.51,4.01,11.15,7.23,16.69Zm65.15-11.75c-1.53-4.96-7.96-7.67-16.15-8.2-1.26-.08-2.56-.11-3.89-.09-11.32.18-24.83,4.07-33.49,11.53-.13.06-.25.13-.38.21-.2.13-.4.27-.58.45-16.07,16.41-28.9,35.17-38.14,55.76-4.21,9.38-7.68,19.15-10.38,29.22-.24-2.66-.69-5.54-1.46-8.36-.19-.7-.41-1.4-.64-2.09-.12-.35-.24-.69-.37-1.03-2.59-6.81-7.53-12.53-16.79-12.72-.46,0-.94,0-1.42.01-13.15.52-23.49,10.85-28.54,24.83-.15.41-.29.83-.43,1.24-.84,2.5-1.51,5.12-2,7.8-.08.45-.16.9-.23,1.35-.21,1.36-.38,2.73-.51,4.11-.32,3.7-.31,7.48.07,11.28.1.95.21,1.9.35,2.85.64,4.27,1.75,8.54,3.39,12.68.35.9.76,1.75,1.21,2.57h92.25c17.28-16.38,45.37-55.94,28.43-68.73-17.63-13.31-50.11,6.18-67.98,28.31,5.23-20.37,14.87-44.23,32.45-67.28,37.67,7.68,69.11-13.14,65.23-25.72Z"></path>
  </g>
  <g>
    <path fill="url(#q)" d="m628.14,1101.78c-21.52-38-64.54-51.58-85.16-30.31-7.79,8.04-8.65,17.09-6.5,25.46.73,2.85,3.28,4.85,6.21,4.85h85.44Z"></path>
    <path fill="url(#r)" d="m748.36,1101.78c19.98-35.29,59.94-47.9,79.09-28.15,7.23,7.46,8.04,15.87,6.03,23.64-.68,2.64-3.04,4.51-5.77,4.51h-79.35Z"></path>
    <path fill="url(#s)" d="m710.16,1044.61c-19.35,15.93-27.31,39.88-30.59,57.17h106.69c24.36-61.62-44.18-83.45-76.1-57.17Z"></path>
    <path fill="url(#t)" d="m681.28,1033.05c-14.93-.59-19.38,12.49-20.56,22.97-.03.41-.07.81-.12,1.19-.49-1.7-.99-3.39-1.53-5.07-1.44-4.5-3.05-8.93-4.81-13.3,18.73-13.21,24.34-34.35,15.63-38.81-11.05-5.67-19.62,12.26-19.93,28.96-6.07-12.88-13.6-25.11-22.52-36.55-.25-.32-.55-.57-.87-.76-14.61-15.77-38.63-17.68-43.82-6.01-5.25,11.8,14.62,33.06,52.91,29.67,9.4,15.72,15.61,31.4,19.64,46.07-.01-.02-.03-.03-.04-.04-17.86-22.13-50.34-41.62-67.98-28.31-16.94,12.79,11.15,52.35,28.43,68.73h92.25c.45-.82.86-1.68,1.21-2.57,11.64-29.44-3.14-65.18-27.9-66.15Zm-42.16-83.85c-17.98-1.71-15.96,34.68-2.51,52.17,17.21-23.15,14.46-51.04,2.51-52.17Z"></path>
  </g>
  <g>
    <g>
      <path fill="url(#c)" d="m1600.61,520.44s-41.38-45.3-76.92-106.37c0,0-6.34-9.76-16.99-4-11.29,6.11-5.69,16.06-5.69,16.06.11.24.23.49.35.73,29.29,59.79,71.25,108.37,84.91,110.17,13.66,1.81,20.07-8.45,14.34-16.58Z"></path>
      <path fill="url(#d)" d="m1529.57,505.33s2.01-9.52,14.22-20.05c11.35-9.79,21.01-13.18,21.01-13.18,0,0,22.08,26.85,42.57,54.78,10.52,14.34-14.78,58.54-28.06,44.07-14.31-15.59-49.73-65.6-49.73-65.6Z"></path>
    </g>
    <path fill="url(#u)" d="m1553.51,449.14s-14.24,38.08-7.58,48.42c6.67,10.35,23.37,6.71,23.37,6.71,0,0-3.52,12.22-4.31,15.03-3.47,12.28,22.17,10.88,22.17,10.88l10.25-52.47s11.42-6.2,8.34-15.37c-3.09-9.17-14.5,1.7-14.5,1.7l6.53-21.16s-31.69,11.82-44.26,6.25Z"></path>
    <path fill="#510400" d="m1560.19,519.59s.75-9.49,7.64-10.23c7.74-.83,24.52,2.74,24.06,8.06-.46,5.33-1.4,8.34-1.4,8.34,0,0-17.41-5.88-30.3-6.18Z"></path>
    <path fill="url(#v)" d="m1542.42,688.16c6.68-42.8,78.66-11.64,78.25,26.06-.26,23.45-16.29,100.26-26.87,151.71-1.13,5.49-10.14,15.64-24.64,15.32-19.19-.42-22.56-14.3-23.06-20.53-3.97-50.08-3.68-172.57-3.68-172.57Z"></path>
    <path fill="url(#w)" d="m1511.41,685.68c20.02-38.41,78.25,14.13,65.81,49.72-7.75,22.13-47.5,89.79-73.98,135.15-2.82,4.84-14.61,11.58-28.24,6.64-18.05-6.53-16.8-20.76-15.28-26.82,12.25-48.72,51.7-164.69,51.7-164.69Z"></path>
    <path fill="#bf1402" d="m1602.3,523.91c24.06,5.34,21.21,155.76,19.68,192.09-.52,12.44-29.54,13.51-74.52,9.53-23.82-2.11-45.82-10.73-44.61-14.38,26.71-80.76,9.6-163.6,24.24-190.13,6.03-10.93,48.84-2.96,75.2,2.89Z"></path>
    <g>
      <path fill="url(#x)" d="m1510.75,524.6s-58.63,18.05-129.04,24.09c0,0-11.53,1.56-10.87,13.65.7,12.81,12.09,12.01,12.09,12.01.27,0,.54,0,.81,0,66.57-.93,128.42-18.1,135.89-29.68,7.47-11.58.94-21.76-8.86-20.06Z"></path>
      <path fill="url(#y)" d="m1456.76,535.18s-4.52,8.61-1.83,24.52c2.5,14.78,7.78,23.55,7.78,23.55,0,0,34.4-3.57,67.72-15.07,16.81-5.8,25.45-55.98,6.47-51.84-20.67,4.5-80.14,18.84-80.14,18.84Z"></path>
    </g>
    <path fill="url(#z)" d="m1606.74,1021.44c-8.22,3.4-15.22,4.05-19.91,3.92,6.58,29.08,11.85,52.69,12.34,55.59.92,5.43,6.59,5.36,8.48,5.28,1.63-.07,6.18-1.79,5.46-6.4-.55-3.55-3.21-28.38-6.37-58.39Z"></path>
    <path fill="url(#A)" d="m1609.08,1020.41c-5.92-60.37-14.08-146.01-14.48-152.85-.23-4.04-4.36-19.83-18.25-23.73-21.04-5.92-31.84,9.86-29.68,20.02,2.05,9.67,3.11,12.51,5.47,21.67,1.62,6.33,19.64,84.09,32.4,139.72,4.87.43,13.79.18,24.54-4.83Z"></path>
    <path fill="#009fb7" d="m1609.73,1013.84c-1.73.91-4.8,2.18-10.04,3.53-7.94,2.04-15.1,1.98-17.81,1.86.03.18.06.37.09.57.53,2.76,1.82,11.28,1.82,11.28,0,0,4.96.92,14.38-.86,9.42-1.77,12.14-4.29,12.14-4.29,0,0-.17-6.08-.58-12.08Z"></path>
    <g>
      <path fill="url(#B)" d="m1491.97,1021.54c-8.67,1.99-15.68,1.46-20.29.56,1.65,29.77,2.92,53.92,2.92,56.87,0,5.51,5.61,6.39,7.49,6.62,1.62.2,6.39-.74,6.45-5.4.05-3.6,1.55-28.53,3.43-58.64Z"></path>
      <path fill="url(#C)" d="m1494.44,1020.91c4.2-60.51,10.39-146.32,11.14-153.13.44-4.03-1-20.28-14.05-26.44-19.77-9.33-33.03,4.43-32.59,14.8.41,9.88.99,12.85,1.79,22.28.55,6.51,5.39,86.18,8.72,143.16,4.73,1.23,13.57,2.47,25-.68Z"></path>
      <path fill="#009fb7" d="m1496.18,1014.54c-1.86.61-5.09,1.36-10.49,1.81-8.17.69-15.22-.56-17.87-1.13,0,.18,0,.37,0,.58.06,2.81-.08,11.42-.08,11.42,0,0,4.73,1.73,14.32,1.54,9.58-.18,12.68-2.21,12.68-2.21,0,0,.84-6.03,1.44-12.01Z"></path>
    </g>
    <path fill="url(#D)" d="m1627.95,447.26c0-.07-.02-.15-.04-.22-1.21-4.89-7.76-4.96-7.76-4.96,0,0,5.25-7.53-.4-14.48-17.89-21.28-59.57-19.42-70.27.97-6.88,13.12-4.81,28.24.88,29.85,1.28-2.62,3.25-5.15,6.05-6.13,14.8,10,14.57,28.28,15.45,41.03.8,11.55,18.2,15.12,25.12,11.7,11.21-5.54,35.32-25.5,31.09-56.98-.02-.27-.07-.52-.12-.77Z"></path>
    <path fill="url(#E)" d="m1566.71,480.85s14.33-12.33,9.76-20.85c-4.59-8.52-18.12,8.4-18.12,8.4l8.36,12.44Z"></path>
    <path fill="url(#F)" d="m1523.85,414.27c-40.3-58.44-64.57-117.45-64.57-117.45l-11.01,1.89s17.77,67.79,54.31,129.94c0,0,4.74,7.22,15.92.69,10.53-6.15,5.76-14.47,5.76-14.47-.14-.2-.27-.39-.41-.6Z"></path>
    <path fill="url(#G)" d="m1464.28,287.97c.24-3.67-1.6-13.99-4.44-14.68-6.72-1.63-3.32,6.28-6.21,12.1-2.51,5.05,3.27,15.68,3.27,15.68,0,0,6.89-5.57,7.38-13.1Z"></path>
    <path fill="url(#H)" d="m1456.89,301.07c10.42-10.89,8.79-15.23-6.49-22.46-8.05-3.81-26.16,15.79-21.45,20.74,9.65,10.15,20.26,9.74,27.94,1.72Z"></path>
    <g>
      <path fill="url(#e)" d="m1621.71,1084.25c-4.13-3.84-22.27-3.46-26.35.12-1.82,1.55-2.59,3.41-2.87,5.24-.35,2.35-.93,11.97,2.56,11.97,5.42,0,14.62-.26,25.65.04,2.39.06,3.43-2.69,3.98-4.26,1.13-3.36,1.35-9.31-2.98-13.11Z"></path>
      <path fill="url(#I)" d="m1600.29,1097.06c5.83.34,13.41.39,20.48.34.59,0,1.1-.43,1.22-1.01.69-3.21.9-4.77.32-9.49-.65-5.22-4.24-10.26-11.02-11.21-8.81-.84-15.47.46-15.81,7.58,0,0-.74,5.58-.13,12.21.05.57.49,1.02,1.05,1.12,1.16.21,2.45.37,3.9.45Z"></path>
    </g>
    <g>
      <path fill="url(#J)" d="m1492.05,1083.18s-.29,7.24-.29,11.72c0,4.07-4.33,3.31-11.76,4.1-14.21,1.52-54.6,3.56-56.5-4.84-1.41-6.27,22.14-12.76,37.37-15.94,15.23-3.18,30.65-5.97,31.18,4.96Z"></path>
      <path fill="url(#K)" d="m1447.08,1081.02s-4.25,6.11-1.84,16.03c7.85.21,36.47-1.3,46.44-1.3,2.76,0,2.49,5.01.6,5.52-3.98,1.07-43.09.13-52.22-.05-4.47-.09-12.13-.02-16.8,0-.96,0-1.75-.77-1.76-1.73-.01-1.97.22-3.93.75-5.58,2.27-7.08,24.83-12.89,24.83-12.89Z"></path>
    </g>
  </g>
  <g>
    <path fill="url(#L)" d="m475.21,491.13c-4.76-45.01-13.55-78.24-47.09-81.81-22.12-2.36-41.96,4.15-50.52,30.47-6.33,19.49,2.18,47.94,2.74,56.6l-12.79.12c-1.53-.1-2.91-.01-4.14.25h0c-13.98,2.97-12.58,19.15,8.11,25.23,60.78,17.83,108.06,10.61,103.68-30.86Z"></path>
    <g>
      <path fill="url(#M)" d="m547.61,606.24c-15.39-11.54-72.08-70.71-88.39-84.17-15.24-12.57-28.88,18.63-12.23,33.28,26.53,23.35,68.99,61.06,85.33,71.59.22.15.45.29.68.43,0,0,9.23,6.71,16.61-3.79,6.96-9.91-2-17.34-2-17.34Z"></path>
      <path fill="url(#f)" d="m528.6,588.46c-8.66-8.3-18.82-18.34-28.81-28.22-16.83-16.64-32.72-32.35-40.25-38.56-2.44-2.01-4.95-3.03-7.46-3.03-4.78,0-9.22,3.88-11.57,10.12-3.04,8.05-2.31,19.51,6.15,26.96l6.12,5.39c17.99,15.85,40.39,35.59,57.85,49.91,10.52-4.47,15.88-16.52,17.98-22.56Z"></path>
    </g>
    <path fill="url(#N)" d="m463.45,453.4s9.6,39.5,1.75,48.98c-7.85,9.48-24,3.88-24,3.88,0,0,1.8,17.86,2.54,20.67.74,2.81-23.66,3.31-23.66,3.31l-3.62-53.71s-10.59-7.52-6.44-16.26c4.16-8.73,14.19,3.42,14.19,3.42l-3.96-21.78s30.06,15.51,43.2,11.48Z"></path>
    <path fill="url(#O)" d="m399.93,597.47h98.8c.7-7.72-4.85-18.02-25.45-30.89-2.68-1.67-4.53-12.95-6.37-23.09-1.2-6.6-3.11-22.32-13.26-24.19-10.16-1.87-28.99-.24-35.96,1.07-22.21,4.17-29.01,10.33-26.87,28.9,1.36,11.84,5.42,31.15,9.13,48.2Z"></path>
    <g>
      <path fill="#050505" d="m247.1,868.96c4.09-2.26,30.46-3.6,32.72-4.19,1.34-.28,2.26-.48,2.63-.57.13-.04,1.77-.55,3.31-1.69,3.22-1.88,4.12-4.58,3.98-9.26-.21-7.3-7.05-12.26-15.74-10.19-9.27,2.2-31.49,6.02-39.66,10.81-3.55,2.08-3.97,5.05-3.9,7.61.08,2.91.13,4.47.21,7.38.17,5.94,1.9,8.07,4.01,8.58,3.89.93,12.01-8.22,12.44-8.46Z"></path>
      <path fill="url(#P)" d="m286.95,857.98c-.22,3.35-4.13,4.35-6,4.8-2.04.5-29.15,2.94-34.66,4.86-.85.3-5.16,4.78-5.21,2.98-.16-5.5-.96-10.03,1.16-10.79,15.56-5.53,33.2-9.52,37.95-9.71,3.13-.12,7.03,3.65,6.76,7.85Z"></path>
    </g>
    <g>
      <path fill="#050505" d="m426.19,1087.92s-.05-.03-.07-.04c-.65-.41-1.41-.84-2.28-1.34-.7-.4-1.63-.92-2.03-1.21-1.14-3.87-3.48-16.25-5.12-25.19-.43-2.79-.86-5.36-1.39-7.63-.25-1.34-.42-2.27-.5-2.65-.03-.12-.5-1.78-1.6-3.35-1.79-3.27-4.46-4.25-9.14-4.25-7.3,0-13.22,6.89-10.64,15.44,2.29,7.6,9.3,31.65,13.85,39.96,1.98,3.61,4.93,4.12,7.49,4.12h10.94c5.94,0,8.13-1.67,8.69-3.76,1.04-3.87-1.2-5.88-8.2-10.1Z"></path>
      <path fill="url(#Q)" d="m408.72,1045.18c3.35.32,4.63,5.07,4.63,5.07.42,2.06,5.36,30.29,7.12,35.85.27.86,8.14,4.14,6.76,5.3-4.04,3.38-13.98.68-14.68-1.47-5.08-15.71-11.61-34.4-12.69-39.04-.47-2.02,4.67-6.1,8.87-5.7Z"></path>
      <path fill="#050505" d="m398.86,1101.78h2.52v-30.62l-8.58-18.75c0,21.5,6.06,32.17,6.06,49.37Z"></path>
    </g>
    <path fill="url(#R)" d="m487.46,660.55c-6.31-42.85-78.16-12.48-78.07,25.22.06,23.45,12.16,87.96,22.3,139.5,1.08,5.49,6.66,20.14,22.62,25.17,15.59,4.91,27.84-11.31,28.38-17.53,4.4-50.05,4.76-172.36,4.76-172.36Z"></path>
    <path fill="url(#S)" d="m453.82,812.09c-14.13,3.12-16.19,19.39-16.65,23.43-4.23,36.9-30.88,198.15-34.77,215.16l10.18,10.74c4.16-18.16,40.67-135.57,63.12-206.22,2.88-9.04,4.11-11.82,6.71-21.38,2.73-10.04-7.17-26.45-28.58-21.73Z"></path>
    <path fill="url(#T)" d="m521.98,794.56c-8.81-11.48-24.42-6.47-28.27-5.19-35.23,11.76-198.42,57.91-215.48,61.57l.36,11.63c18.22-3.91,140.05-20.45,213.57-29.97,9.41-1.21,12.45-1.28,22.21-2.96,10.25-1.77,20.94-17.68,7.61-35.08Z"></path>
    <path fill="url(#U)" d="m444.26,649.64c-19.12-23.19-49.95-7.84-59.82,19.11-5.43,14.8,3.45,39.04,9.43,48.9,12.17,20.04,52.2,63.3,87.51,102.18,3.77,4.14,16.11,13.81,32.38,9.86,15.89-3.85,17.99-24.07,15.23-29.68-22.09-45.12-84.74-150.38-84.74-150.38Z"></path>
    <path fill="url(#V)" d="m383.35,670.87c-1.36,5.18-2.56,27.28,7.3,44.03,9.86,16.76,24.99,34.09,24.99,34.09l11.2,59.65-14.23,4.6s-1.72,5.04,1.15,14.17c2.87,9.13,7.85,15.64,7.85,15.64,0,0,67.47-9.06,81-11.17,13.53-2.11,22.28-2.43,26.36-15.83,4.09-13.4.89-15-2.43-21.96-3.32-6.96-39.08-71.47-39.08-71.47,0,0,.68-36.68.68-43.59s1.57-27.72-6.73-35.44c-8.3-7.72-36.77-14.87-56.43-10.79-19.66,4.09-37.07,20.62-41.64,38.09Z"></path>
    <path fill="url(#W)" d="m545.37,604.89c62.28,34.07,123.47,52.14,123.47,52.14l-.74,11.15s-69.26-10.71-134.84-40.66c0,0-7.67-3.97-2.32-15.76,5.04-11.11,13.8-7.22,13.8-7.22.21.12.42.23.64.34Z"></path>
    <path fill="url(#X)" d="m337.14,623.42c-23.15,67.11-30.71,130.46-30.71,130.46l-11.12,1.14s-1.05-70.07,17.48-139.75c0,0,2.63-8.22,15.15-4.93,11.8,3.1,9.43,12.4,9.43,12.4-.08.23-.16.45-.23.68Z"></path>
    <path fill="#bf1402" d="m473.54,566.15c-2.3-1.44-4.14-11.64-5.76-20.64l-.38-2.11c-.09-.49-.18-1.03-.28-1.61-1.27-7.4-3.64-21.19-13.38-22.98-.45-.08-4.59-.49-5.33-.54-.29-.02-.46.27-.26.37,13.11,7.09,14.98,34.52,15.46,41.03.45,6.06-6.19,4.81-20.74,5.46-14.73.65-8.42-2.22-12.33-18.05-4.02-16.28-13.27-22.91-19.06-25.45-.3-.13-.64-.13-.95-.03-13.62,4.55-22.74,7.27-20.21,27.73,1.7,13.77,6.75,37.36,10.9,56.31,1.84,8.4,3.43,15.65,4.37,20.55,1.07,6.07-4.29,13.67-9.96,21.73-5.1,7.23-10.53,14.56-12.35,22.22-.74,3.1,11.98,7.34,54.01,5.05,29.46-1.61,40.7,6.68,51.13,3.64,0-4.09-.49-25.65-.7-28.88-.97-14.45-3.54-33.9-3.94-35.07,2.52-1.09,14.5-6.78,15.47-17.31.89-9.63-7.76-20.19-25.69-31.39Z"></path>
    <path fill="url(#Y)" d="m316.13,610.4c14.95-12.12,64.49-65.71,79.09-81.01,9.93-10.4,29.63,17.77,16.1,30.61-25.63,24.32-63.19,59.37-79.13,70.5-.22.16-.44.31-.66.46,0,0-8.98,7.05-16.75-3.17-7.32-9.64,1.35-17.4,1.35-17.4Z"></path>
    <path fill="url(#Z)" d="m414.62,539.96c-3.08-7.72-9.13-13.33-14.39-13.33-2.03,0-3.84.81-5.37,2.41-2.87,3-7.08,7.48-12.11,12.83-13.82,14.69-33.9,36.04-49.22,51.41,2.01,3.91,8.87,16.17,18.5,21.86,14.34-12.4,34.28-30.71,59.65-54.78,5.04-4.78,6.14-12.41,2.95-20.41Z"></path>
    <path fill="url(#g)" d="m456.28,793.63c-10.48-11.45-36.17-39.56-40.65-44.64l11.2,59.65,27.57-8.26c2.92-.88,3.93-4.5,1.87-6.75Z"></path>
    <path fill="url(#aa)" d="m463.7,680.91s19.05,32.98,23.76,41.7c0,0,.59-31.68.67-41.7h-24.43Z"></path>
    <path fill="url(#ab)" d="m424.92,614.85c-7.37-6.11-5.02-22.8-5.02-22.8,0,0-5.8,17.44,3.47,26.71,9.24,9.24,46.48,7.63,61.38,2.66-.49-3.68-.87-6.18-1.01-6.58-13.36,6.51-50.41,6.98-58.83,0Z"></path>
    <g>
      <path fill="#009fb7" d="m354.69,800.6h-4.81v-29.35c0-2.65-2.15-4.8-4.8-4.8h-73.11c-2.65,0-4.8,2.15-4.8,4.8v29.35h-4.8v-29.35c0-5.31,4.3-9.61,9.61-9.61h73.11c5.3,0,9.61,4.3,9.61,9.61v29.35Z"></path>
      <rect width="4.8" height="23.53" x="262.36" y="777.07" fill="url(#h)"></rect>
      <rect width="4.81" height="23.53" x="349.89" y="777.07" fill="url(#ac)"></rect>
      <path fill="#009fb7" d="m373.33,803.7c-1.59-1.97-3.95-3.11-6.48-3.11h-116.63c-2.53,0-4.9,1.13-6.48,3.11-1.59,1.97-2.19,4.53-1.64,7l12.77,58.16c1.03,4.68,5.25,8.07,10.04,8.07h87.27c4.79,0,9.01-3.39,10.04-8.07l12.77-58.16c.54-2.47-.06-5.03-1.64-7Z"></path>
      <path fill="#006f93" d="m373.33,803.7c-1.59-1.97-3.95-3.11-6.48-3.11h-26.9c-1.33,0-2.41,1.08-2.41,2.41s1.08,2.41,2.41,2.41h26.9c1.07,0,2.06.48,2.73,1.31.67.83.92,1.9.69,2.95l-3.66,16.66-9.11,41.5c-.55,2.48-2.79,4.29-5.33,4.29h-87.27c-2.54,0-4.78-1.8-5.33-4.29l-12.77-58.16c-.23-1.04.02-2.12.69-2.95.67-.83,1.66-1.31,2.73-1.31h30.41c1.33,0,2.41-1.08,2.41-2.41s-1.08-2.41-2.41-2.41h-30.41c-2.53,0-4.9,1.13-6.48,3.11-1.59,1.97-2.19,4.53-1.64,7l12.77,58.16c1.03,4.68,5.25,8.07,10.04,8.07h87.27c4.79,0,9.01-3.39,10.04-8.07l9.11-41.5,3.66-16.66c.54-2.47-.06-5.03-1.64-7Z"></path>
      <path fill="#00416d" d="m332.88,766.53c0,.85-.69,1.53-1.53,1.53h-45.63c-.84,0-1.53-.69-1.53-1.53v-5.03c0-.85.69-1.54,1.54-1.54h45.62c.85,0,1.54.69,1.54,1.54v5.03Z"></path>
      <rect width="12.21" height="4.86" x="346.16" y="800.6" fill="#00416d"></rect>
      <path fill="#ff4a0b" d="M347.8 805.47c0 .53-.43.95-.96.95h-1.34c-.53 0-.96-.42-.96-.95v-4.91c0-.53.43-.96.96-.96h1.34c.53 0 .96.42.96.96v4.91ZM353.91 805.47c0 .53-.43.95-.96.95h-1.35c-.53 0-.96-.42-.96-.95v-4.91c0-.53.43-.96.96-.96h1.35c.53 0 .96.42.96.96v4.91ZM360.01 805.47c0 .53-.43.95-.96.95h-1.34c-.54 0-.97-.42-.97-.95v-4.91c0-.53.43-.96.97-.96h1.34c.53 0 .96.42.96.96v4.91Z"></path>
      <g>
        <rect width="12.21" height="4.86" x="258.66" y="800.6" fill="#00416d"></rect>
        <path fill="#ff4a0b" d="M260.29 805.47c0 .53-.43.95-.96.95h-1.34c-.53 0-.96-.42-.96-.95v-4.91c0-.53.43-.96.96-.96h1.34c.53 0 .96.42.96.96v4.91ZM266.4 805.47c0 .53-.43.95-.96.95h-1.35c-.53 0-.96-.42-.96-.95v-4.91c0-.53.43-.96.96-.96h1.35c.53 0 .96.42.96.96v4.91ZM272.51 805.47c0 .53-.43.95-.96.95h-1.34c-.54 0-.97-.42-.97-.95v-4.91c0-.53.43-.96.97-.96h1.34c.53 0 .96.42.96.96v4.91Z"></path>
      </g>
      <g>
        <path fill="#00416d" d="m333.06,812.5l-1.8-1.84c-2.06-2.1-3.76-6.24-3.76-9.18v-16.9h-15.26v16.9c0,2.94-1.7,7.08-3.76,9.18l-1.8,1.84c-2.07,2.1-3.77,6.24-3.77,9.19v46.37c0,2.23,1.82,4.05,4.05,4.05h25.83c2.23,0,4.06-1.83,4.06-4.06v-46.36c0-2.95-1.7-7.09-3.77-9.19Z"></path>
        <path fill="#ff4a0b" d="m329.53,785.36c0,.73-.6,1.34-1.34,1.34h-16.66c-.74,0-1.35-.61-1.35-1.34v-1.8c0-.73.61-1.34,1.35-1.34h16.66c.74,0,1.34.61,1.34,1.34v1.8Z"></path>
        <rect width="33.94" height="38.52" x="302.89" y="825.11" fill="#ff4a0b"></rect>
        <g>
          <path fill="#80cfdb" d="m304.3,845.18l-4.75-26.76c-.11-.65-.2-1.72-.2-2.38v-5.44h-8.56v5.44c0,.67-.09,1.74-.2,2.38l-4.75,26.76c-.12.66-.21,1.73-.21,2.38v22.52c0,1.12.91,2.03,2.03,2.03h14.83c1.12,0,2.03-.91,2.03-2.03v-22.52c0-.66-.1-1.73-.21-2.38Z"></path>
          <path fill="#006289" d="m290.3,810.59h10.13v4.97c0,.33-.27.61-.61.61h-9.52c-.33,0-.61-.27-.61-.61v-4.36c0-.33.27-.61.61-.61Z"></path>
          <path fill="#00416d" d="m290.3,808.84h9.52c.33,0,.61.27.61.61v1.15h-10.13c-.33,0-.61-.27-.61-.61v-.54c0-.33.27-.61.61-.61Z"></path>
          <rect width="18.89" height="19.08" x="285.62" y="848.88" fill="#fff" opacity=".5"></rect>
          <ellipse cx="295.06" cy="858.42" fill="#fff" opacity=".5" rx="5.26" ry="7.06"></ellipse>
          <path fill="#009fb7" d="m301.51,810.59c0-.59-.48-1.07-1.07-1.07s-1.07.48-1.07,1.07.48,1.07,1.07,1.07,1.07-.48,1.07-1.07Z"></path>
          <path fill="#fff" d="m300.93,810.59c0-.27-.22-.5-.5-.5s-.5.22-.5.5.22.5.5.5.5-.22.5-.5Z" opacity=".5"></path>
        </g>
        <path fill="#fff" d="m334.08,859.19h-14.79c-.16,0-.28.13-.28.28v1.41c0,.16.13.28.28.28h14.79c.16,0,.28-.13.28-.28v-1.41c0-.16-.13-.28-.28-.28Zm0-4.45h-14.79c-.16,0-.28.13-.28.28v1.41c0,.16.13.28.28.28h14.79c.16,0,.28-.13.28-.28v-1.41c0-.16-.13-.28-.28-.28Zm0-4.45h-14.79c-.16,0-.28.13-.28.28v1.41c0,.16.13.28.28.28h14.79c.16,0,.28-.13.28-.28v-1.41c0-.16-.13-.28-.28-.28Zm0-4.45h-9.49c-.16,0-.28.13-.28.28v1.41c0,.16.13.28.28.28h9.49c.16,0,.28-.13.28-.28v-1.41c0-.16-.13-.28-.28-.28Z" opacity=".5"></path>
      </g>
      <g>
        <path fill="#006f93" d="M278.62 824.44h-8.29l-1.79-12.19c-.19-1.32-1.42-2.23-2.73-2.03-1.32.19-2.23 1.42-2.03 2.73l1.68 11.5h-7.85c-1.33 0-2.41 1.08-2.41 2.41s1.08 2.41 2.41 2.41h8.55l2.79 19.02h-6.1c-1.33 0-2.41 1.08-2.41 2.41s1.08 2.41 2.41 2.41h6.81l1.79 12.2c.18 1.2 1.2 2.06 2.38 2.06.12 0 .23 0 .35-.03 1.32-.19 2.23-1.42 2.03-2.73l-1.68-11.5h1.22c1.33 0 2.41-1.08 2.41-2.41s-1.08-2.41-2.41-2.41h-1.92l-1.1-7.52s0-.02 0-.03l-.67-4.59s0-.04 0-.05l-1-6.83h7.59c1.33 0 2.41-1.08 2.41-2.41s-1.08-2.41-2.41-2.41ZM359.42 824.44h-7.81l1.68-11.5c.19-1.32-.72-2.54-2.03-2.73-1.32-.19-2.54.72-2.73 2.03l-2.07 14.11s0 .02 0 .03v.07s-.02.03-.02.04l-2.11 14.39c-.19 1.32.72 2.54 2.03 2.73.12.02.24.03.35.03 1.18 0 2.2-.86 2.38-2.06l.7-4.75s0-.03.01-.05l1.1-7.53h8.51c1.33 0 2.41-1.08 2.41-2.41s-1.08-2.41-2.41-2.41ZM354.18 848.28h-7.47c-1.33 0-2.41 1.08-2.41 2.41s1.08 2.41 2.41 2.41h7.47c1.33 0 2.41-1.08 2.41-2.41s-1.08-2.41-2.41-2.41Z"></path>
      </g>
      <rect width="12.21" height="4.8" x="271.97" y="761.65" fill="url(#i)"></rect>
      <rect width="12.21" height="4.8" x="332.88" y="761.65" fill="url(#ad)"></rect>
    </g>
    <g>
      <path fill="url(#ae)" d="m321.88,756.61c2.7,2.49,5.53,7.6,3.06,9.15-3.4,2.13-5.66-2.77-9.71-2.37-5.61.55-14.37-12.03-14.37-12.03,0,0,13.79-1.43,21.02,5.26Z"></path>
      <path fill="url(#af)" d="m297.43,751.8c-9.15,2.04-8.16,14.45-4.77,20.6,3.95,7.18,32.12,5.74,32.21-2,.02-1.47-.57-2.15-.81-2.43-2.05.14-4.14.06-4.59.08-.73-9-9.35-19.06-22.04-16.24Z"></path>
    </g>
    <path fill="#510400" d="m428.11,547.68c1.14,4.62,1.38,8.15,1.55,10.72.43,6.48,1.5,9.31,9.94,9.31.95,0,2.06-.03,3.38-.09,2.7-.12,5.14-.17,7.29-.22,7.46-.17,11.96-.27,14.36-2.9,1.14-1.25,1.64-2.94,1.48-5.02l-.02-.23c-1.14-15.5-4.01-27.05-8.57-34.56l-1.69-2.51c-1.26-1.69-2.62-2.87-3.5-3.55-1.42-.15-3.43-.34-3.92-.38-.29-.02-.46.26-.26.37,13.11,7.09,14.98,34.52,15.46,41.03.45,6.06-6.19,4.81-20.74,5.46-14.73.65-8.42-2.22-12.33-18.05-4.02-16.28-13.27-22.91-19.06-25.45-.3-.13-.64-.13-.95-.03-1.03.34-2.02.67-2.99,1,1.19.53,2.51,1.12,3.37,1.51,5,2.31,13.46,8.37,17.21,23.57Z"></path>
  </g>
  <g>
    <path fill="#ffb680" d="m681.32,659.71c3.32,1.58,9.81,10.1,8.55,12.73-2.99,6.23-6.96-1.41-13.29-2.85-5.5-1.26-10.07-12.46-10.07-12.46,0,0,7.92-.72,14.81,2.58Z"></path>
    <path fill="#ffb680" d="m666.5,657.13c15.03-1.17,17.35,2.85,13.27,19.25-2.15,8.64-28.78,10.24-29.63,3.46-1.74-13.9,5.3-21.85,16.36-22.71Z"></path>
  </g>
  <g>
    <g>
      <path fill="url(#ag)" d="m1160.6,357.86v-4.59c-.8-.57-1.66-1.09-3.25-1.09-3.48,0-3.48,2.53-6.96,2.53s-3.48-2.53-6.96-2.53-3.48,2.53-6.96,2.53-3.48-2.53-6.97-2.53-3.48,2.53-6.96,2.53-3.48-2.53-6.97-2.53-3.48,2.53-6.97,2.53-3.48-2.53-6.97-2.53-3.48,2.53-6.97,2.53-3.48-2.53-6.97-2.53-3.48,2.53-6.97,2.53-3.48-2.53-6.97-2.53-3.48,2.53-6.97,2.53-3.48-2.53-6.97-2.53-3.48,2.53-6.97,2.53-3.48-2.53-6.97-2.53-3.48,2.53-6.97,2.53-3.48-2.53-6.97-2.53-3.48,2.53-6.97,2.53-3.48-2.53-6.97-2.53-3.48,2.53-6.97,2.53-3.48-2.53-6.97-2.53-3.48,2.53-6.96,2.53-3.48-2.53-6.96-2.53-3.48,2.53-6.96,2.53-3.48-2.53-6.97-2.53-3.48,2.53-6.96,2.53-3.48-2.53-6.97-2.53-3.48,2.53-6.97,2.53-3.48-2.53-6.97-2.53-3.48,2.53-6.97,2.53-3.48-2.53-6.97-2.53c-1.59,0-2.45.53-3.25,1.1v17.06h0v199.65h0c0,14.27-11.57,25.84-25.84,25.84h229.42c14.27,0,25.84-11.57,25.84-25.84v-212.13Z"></path>
      <g fill="none" opacity=".9">
        <path fill="#0a2357" d="M950.83 375.99h16.87c.83 0 1.5.67 1.5 1.5v16.87c0 .83-.67 1.5-1.5 1.5h-16.87c-.83 0-1.5-.67-1.5-1.5v-16.87c0-.83.67-1.5 1.5-1.5ZM950.82 434.05h16.87c.83 0 1.5.67 1.5 1.5v16.87c0 .83-.67 1.5-1.5 1.5h-16.87c-.83 0-1.5-.67-1.5-1.5v-16.87c0-.83.67-1.5 1.5-1.5ZM950.83 492.09h16.87c.83 0 1.5.67 1.5 1.5v16.87c0 .83-.67 1.5-1.5 1.5h-16.87c-.83 0-1.5-.67-1.5-1.5v-16.87c0-.83.67-1.5 1.5-1.5ZM950.82 550.12h16.87c.83 0 1.5.67 1.5 1.5v16.87c0 .83-.67 1.5-1.5 1.5h-16.87c-.83 0-1.5-.67-1.5-1.5v-16.87c0-.83.67-1.5 1.5-1.5Z"></path>
      </g>
      <g>
        <path fill="#fff" d="m972.93,551.08l-2.22-2.22c-.6-.6-1.58-.6-2.19,0l-9.27,9.27-3.88-3.88c-.6-.6-1.58-.6-2.18,0l-2.22,2.22c-.6.6-.6,1.58,0,2.18l4.79,4.79c.05.07.1.14.16.2l2.22,2.22c.31.3.71.45,1.11.45.4,0,.8-.14,1.11-.45l2.22-2.22c.06-.06.11-.13.16-.19l10.18-10.18c.6-.6.6-1.59,0-2.18Z"></path>
        <g fill="none" opacity=".25">
          <rect width="84.45" height="6.65" x="1037.84" y="563.34" fill="#fff" rx="1.5" ry="1.5"></rect>
          <path fill="#fff" d="M1015.99 550.12h57.16c.83 0 1.5.67 1.5 1.5v3.65c0 .83-.67 1.5-1.5 1.5h-57.16c-.83 0-1.5-.67-1.5-1.5v-3.65c0-.83.67-1.5 1.5-1.5ZM1082.71 550.12h18.03c.83 0 1.5.67 1.5 1.5v3.65c0 .83-.67 1.5-1.5 1.5h-18.03c-.83 0-1.5-.67-1.5-1.5v-3.65c0-.83.67-1.5 1.5-1.5ZM981.38 556.77h25.05c.83 0 1.5-.68 1.5-1.5v-3.66c0-.82-.67-1.5-1.5-1.5h-25.05c-.83 0-1.5.67-1.5 1.5v3.66c0 .82.67 1.5 1.5 1.5ZM1031.28 568.49v-3.65c0-.82-.67-1.5-1.5-1.5h-48.4c-.83 0-1.5.67-1.5 1.5v3.65c0 .82.67 1.5 1.5 1.5h48.4c.83 0 1.5-.68 1.5-1.5ZM1140.95 550.12h-30.65c-.83 0-1.5.68-1.5 1.5v3.65c0 .82.67 1.5 1.5 1.5h30.65c.83 0 1.5-.68 1.5-1.5v-3.66c0-.82-.67-1.5-1.5-1.5ZM1140.95 563.34h-10.61c-.82 0-1.5.68-1.5 1.5v3.65c0 .82.68 1.5 1.5 1.5h10.61c.83 0 1.5-.68 1.5-1.5v-3.65c0-.82-.67-1.5-1.5-1.5Z"></path>
        </g>
      </g>
      <path fill="#00416d" d="m1160.6,353.27c-.8-.57-1.66-1.09-3.25-1.09-3.48,0-3.48,2.53-6.96,2.53s-3.48-2.53-6.96-2.53-3.48,2.53-6.96,2.53-3.48-2.53-6.97-2.53-3.48,2.53-6.96,2.53-3.48-2.53-6.97-2.53-3.48,2.53-6.97,2.53-3.48-2.53-6.97-2.53-3.48,2.53-6.97,2.53-3.48-2.53-6.97-2.53-3.48,2.53-6.97,2.53-3.48-2.53-6.97-2.53-3.48,2.53-6.97,2.53-3.48-2.53-6.97-2.53-3.48,2.53-6.97,2.53-3.48-2.53-6.97-2.53-3.48,2.53-6.97,2.53-3.48-2.53-6.97-2.53-3.48,2.53-6.97,2.53-3.48-2.53-6.97-2.53-3.48,2.53-6.97,2.53-3.48-2.53-6.97-2.53-3.48,2.53-6.96,2.53-3.48-2.53-6.96-2.53-3.48,2.53-6.96,2.53-3.48-2.53-6.97-2.53-3.48,2.53-6.96,2.53-3.48-2.53-6.97-2.53-3.48,2.53-6.97,2.53-3.48-2.53-6.97-2.53-3.48,2.53-6.97,2.53-3.48-2.53-6.97-2.53c-1.59,0-2.45.53-3.25,1.1v3.16c.8-.57,1.66-1.1,3.25-1.1,3.48,0,3.48,2.53,6.97,2.53s3.48-2.53,6.97-2.53,3.48,2.53,6.97,2.53,3.48-2.53,6.97-2.53,3.48,2.53,6.97,2.53,3.48-2.53,6.96-2.53,3.48,2.53,6.97,2.53,3.48-2.53,6.96-2.53,3.48,2.53,6.96,2.53,3.48-2.53,6.96-2.53,3.48,2.53,6.97,2.53,3.48-2.53,6.97-2.53,3.48,2.53,6.97,2.53,3.48-2.53,6.97-2.53,3.48,2.53,6.97,2.53,3.48-2.53,6.97-2.53,3.48,2.53,6.97,2.53,3.48-2.53,6.97-2.53,3.48,2.53,6.97,2.53,3.48-2.53,6.97-2.53,3.48,2.53,6.97,2.53,3.48-2.53,6.97-2.53,3.48,2.53,6.97,2.53,3.48-2.53,6.97-2.53,3.48,2.53,6.97,2.53,3.48-2.53,6.97-2.53,3.48,2.53,6.97,2.53,3.48-2.53,6.96-2.53,3.48,2.53,6.97,2.53,3.48-2.53,6.96-2.53,3.48,2.53,6.96,2.53,3.48-2.53,6.96-2.53c1.59,0,2.45.52,3.25,1.09v-3.16Z"></path>
      <rect width="193.13" height="1.94" x="949.33" y="530.07" fill="url(#j)" opacity=".5"></rect>
      <rect width="193.13" height="1.94" x="949.33" y="472.04" fill="url(#ah)" opacity=".5"></rect>
      <rect width="193.13" height="1.94" x="949.33" y="414" fill="url(#ai)" opacity=".5"></rect>
      <g>
        <path fill="#fff" d="m972.93,376.95l-2.22-2.22c-.6-.6-1.58-.6-2.19,0l-9.27,9.27-3.88-3.88c-.6-.6-1.58-.6-2.18,0l-2.22,2.22c-.6.6-.6,1.58,0,2.19l4.79,4.79c.05.07.1.14.16.2l2.22,2.22c.31.3.71.45,1.11.45.4,0,.8-.14,1.11-.45l2.22-2.22c.06-.06.11-.13.16-.19l10.18-10.18c.6-.6.6-1.58,0-2.18Z"></path>
        <g fill="none" opacity=".25">
          <path fill="#fff" d="M1039.34 389.21h81.45c.83 0 1.5.67 1.5 1.5v3.65c0 .83-.67 1.5-1.5 1.5h-81.45c-.83 0-1.5-.67-1.5-1.5v-3.65c0-.83.67-1.5 1.5-1.5ZM1015.99 375.99h57.16c.83 0 1.5.67 1.5 1.5v3.65c0 .83-.67 1.5-1.5 1.5h-57.16c-.83 0-1.5-.67-1.5-1.5v-3.65c0-.83.67-1.5 1.5-1.5ZM1082.71 375.99h18.03c.83 0 1.5.67 1.5 1.5v3.65c0 .83-.67 1.5-1.5 1.5h-18.03c-.83 0-1.5-.67-1.5-1.5v-3.65c0-.83.67-1.5 1.5-1.5ZM981.38 382.64h25.05c.83 0 1.5-.68 1.5-1.5v-3.66c0-.82-.67-1.5-1.5-1.5h-25.05c-.83 0-1.5.67-1.5 1.5v3.66c0 .82.67 1.5 1.5 1.5ZM1031.28 394.36v-3.65c0-.82-.67-1.5-1.5-1.5h-48.4c-.83 0-1.5.67-1.5 1.5v3.65c0 .82.67 1.5 1.5 1.5h48.4c.83 0 1.5-.68 1.5-1.5ZM1140.95 375.99h-30.65c-.83 0-1.5.68-1.5 1.5v3.66c0 .82.67 1.5 1.5 1.5h30.65c.83 0 1.5-.68 1.5-1.5v-3.66c0-.82-.67-1.5-1.5-1.5ZM1140.95 389.21h-10.61c-.82 0-1.5.68-1.5 1.5v3.65c0 .82.68 1.5 1.5 1.5h10.61c.83 0 1.5-.68 1.5-1.5v-3.65c0-.82-.67-1.5-1.5-1.5Z"></path>
        </g>
      </g>
      <g>
        <path fill="#fff" d="m972.93,435.01l-2.22-2.22c-.6-.6-1.58-.6-2.19,0l-9.27,9.27-3.88-3.88c-.6-.6-1.58-.6-2.18,0l-2.22,2.22c-.6.6-.6,1.58,0,2.19l4.79,4.79c.05.07.1.14.16.2l2.22,2.22c.31.31.71.45,1.11.45.4,0,.8-.14,1.11-.45l2.22-2.22c.06-.06.11-.13.16-.19l10.18-10.18c.6-.6.6-1.58,0-2.18Z"></path>
        <g fill="none" opacity=".25">
          <rect width="84.45" height="6.65" x="1037.84" y="447.27" fill="#fff" rx="1.5" ry="1.5"></rect>
          <path fill="#fff" d="M1015.99 434.05h57.16c.83 0 1.5.67 1.5 1.5v3.65c0 .83-.67 1.5-1.5 1.5h-57.16c-.83 0-1.5-.67-1.5-1.5v-3.65c0-.83.67-1.5 1.5-1.5ZM1082.71 434.05h18.03c.83 0 1.5.67 1.5 1.5v3.65c0 .83-.67 1.5-1.5 1.5h-18.03c-.83 0-1.5-.67-1.5-1.5v-3.65c0-.83.67-1.5 1.5-1.5ZM981.38 440.71h25.05c.83 0 1.5-.68 1.5-1.5v-3.66c0-.82-.67-1.5-1.5-1.5h-25.05c-.83 0-1.5.67-1.5 1.5v3.66c0 .82.67 1.5 1.5 1.5ZM1031.28 452.42v-3.65c0-.82-.67-1.5-1.5-1.5h-48.4c-.83 0-1.5.67-1.5 1.5v3.65c0 .82.67 1.5 1.5 1.5h48.4c.83 0 1.5-.68 1.5-1.5ZM1140.95 434.05h-30.65c-.83 0-1.5.68-1.5 1.5v3.66c0 .82.67 1.5 1.5 1.5h30.65c.83 0 1.5-.68 1.5-1.5v-3.66c0-.82-.67-1.5-1.5-1.5ZM1140.95 447.27h-10.61c-.82 0-1.5.68-1.5 1.5v3.65c0 .82.68 1.5 1.5 1.5h10.61c.83 0 1.5-.68 1.5-1.5v-3.65c0-.82-.67-1.5-1.5-1.5Z"></path>
        </g>
      </g>
      <g>
        <path fill="#fff" d="m972.93,493.05l-2.22-2.22c-.6-.6-1.58-.6-2.19,0l-9.27,9.27-3.88-3.88c-.6-.6-1.58-.6-2.18,0l-2.22,2.22c-.6.6-.6,1.58,0,2.19l4.79,4.79c.05.07.1.14.16.2l2.22,2.22c.31.3.71.45,1.11.45.4,0,.8-.14,1.11-.45l2.22-2.22c.06-.06.11-.13.16-.19l10.18-10.18c.6-.6.6-1.58,0-2.18Z"></path>
        <g fill="none" opacity=".25">
          <path fill="#fff" d="M1039.34 505.3h81.45c.83 0 1.5.67 1.5 1.5v3.65c0 .83-.67 1.5-1.5 1.5h-81.45c-.83 0-1.5-.67-1.5-1.5v-3.65c0-.83.67-1.5 1.5-1.5ZM1015.99 492.09h57.16c.83 0 1.5.67 1.5 1.5v3.65c0 .83-.67 1.5-1.5 1.5h-57.16c-.83 0-1.5-.67-1.5-1.5v-3.65c0-.83.67-1.5 1.5-1.5ZM1082.71 492.09h18.03c.83 0 1.5.67 1.5 1.5v3.65c0 .83-.67 1.5-1.5 1.5h-18.03c-.83 0-1.5-.67-1.5-1.5v-3.65c0-.83.67-1.5 1.5-1.5ZM981.38 498.74h25.05c.83 0 1.5-.68 1.5-1.5v-3.66c0-.82-.67-1.5-1.5-1.5h-25.05c-.83 0-1.5.67-1.5 1.5v3.66c0 .82.67 1.5 1.5 1.5ZM1031.28 510.46v-3.65c0-.82-.67-1.5-1.5-1.5h-48.4c-.83 0-1.5.67-1.5 1.5v3.65c0 .82.67 1.5 1.5 1.5h48.4c.83 0 1.5-.68 1.5-1.5ZM1140.95 492.09h-30.65c-.83 0-1.5.68-1.5 1.5v3.65c0 .82.67 1.5 1.5 1.5h30.65c.83 0 1.5-.68 1.5-1.5v-3.66c0-.82-.67-1.5-1.5-1.5ZM1140.95 505.3h-10.61c-.82 0-1.5.68-1.5 1.5v3.65c0 .82.68 1.5 1.5 1.5h10.61c.83 0 1.5-.68 1.5-1.5v-3.65c0-.82-.67-1.5-1.5-1.5Z"></path>
        </g>
      </g>
    </g>
    <path fill="url(#aj)" d="m851.76,505.19h229.42c14.27,0,25.84,11.57,25.84,25.84l.17,38.97c0,14.27,11.57,25.84,25.84,25.84h-229.42c-14.27,0-25.84-11.57-25.84-25.84l-.17-38.97c0-14.27-11.57-25.84-25.84-25.84Z"></path>
    <path fill="url(#ak)" d="m1082.23,505.18h-229.42c-14.27,0-25.84,11.57-25.84,25.84v173.99s0,0,0,0v18.11h229.42v-18.11h0v-173.99c0-14.27,11.56-25.84,25.83-25.84Z"></path>
    <g>
      <path fill="#0a2357" d="m846.63,531.01h16.87c.83,0,1.5.67,1.5,1.5v16.87c0,.83-.67,1.5-1.5,1.5h-16.87c-.83,0-1.5-.67-1.5-1.5v-16.87c0-.83.67-1.5,1.5-1.5Z" opacity=".9"></path>
      <path fill="#fff" d="m868.73,531.97l-2.22-2.22c-.6-.6-1.58-.6-2.19,0l-9.27,9.27-3.88-3.88c-.6-.6-1.58-.6-2.18,0l-2.22,2.22c-.6.6-.6,1.58,0,2.19l4.79,4.79c.05.07.1.14.16.2l2.22,2.22c.31.31.71.45,1.11.45.4,0,.8-.14,1.11-.45l2.22-2.22c.06-.06.11-.13.16-.19l10.18-10.18c.6-.6.6-1.58,0-2.18Z"></path>
      <g fill="none" opacity=".25">
        <rect width="84.45" height="6.65" x="933.64" y="544.22" fill="#fff" rx="1.5" ry="1.5"></rect>
        <path fill="#fff" d="M911.79 531.01h57.16c.83 0 1.5.67 1.5 1.5v3.65c0 .83-.67 1.5-1.5 1.5h-57.16c-.83 0-1.5-.67-1.5-1.5v-3.65c0-.83.67-1.5 1.5-1.5ZM978.51 531.01h18.03c.83 0 1.5.67 1.5 1.5v3.65c0 .83-.67 1.5-1.5 1.5h-18.03c-.83 0-1.5-.67-1.5-1.5v-3.65c0-.83.67-1.5 1.5-1.5ZM877.18 537.66h25.05c.83 0 1.5-.68 1.5-1.5v-3.66c0-.82-.67-1.5-1.5-1.5h-25.05c-.83 0-1.5.67-1.5 1.5v3.66c0 .82.67 1.5 1.5 1.5ZM927.08 549.38v-3.65c0-.82-.67-1.5-1.5-1.5h-48.4c-.83 0-1.5.67-1.5 1.5v3.65c0 .82.67 1.5 1.5 1.5h48.4c.83 0 1.5-.68 1.5-1.5ZM1036.75 531.01h-30.65c-.83 0-1.5.68-1.5 1.5v3.65c0 .82.67 1.5 1.5 1.5h30.65c.83 0 1.5-.68 1.5-1.5v-3.66c0-.82-.67-1.5-1.5-1.5ZM1036.75 544.22h-10.61c-.82 0-1.5.68-1.5 1.5v3.65c0 .82.68 1.5 1.5 1.5h10.61c.83 0 1.5-.68 1.5-1.5v-3.65c0-.82-.67-1.5-1.5-1.5Z"></path>
      </g>
    </g>
    <g>
      <path fill="#0a2357" d="m846.63,589.07h16.87c.83,0,1.5.67,1.5,1.5v16.87c0,.83-.67,1.5-1.5,1.5h-16.87c-.83,0-1.5-.67-1.5-1.5v-16.87c0-.83.67-1.5,1.5-1.5Z" opacity=".9"></path>
      <path fill="#fff" d="m868.73,590.03l-2.22-2.22c-.6-.6-1.58-.6-2.19,0l-9.27,9.27-3.88-3.88c-.6-.6-1.58-.6-2.18,0l-2.22,2.22c-.6.6-.6,1.58,0,2.19l4.79,4.79c.05.07.1.14.16.2l2.22,2.22c.31.3.71.45,1.11.45.4,0,.8-.14,1.11-.45l2.22-2.22c.06-.06.11-.13.16-.19l10.18-10.18c.6-.6.6-1.58,0-2.18Z"></path>
      <g fill="none" opacity=".25">
        <rect width="84.45" height="6.65" x="933.64" y="602.29" fill="#fff" rx="1.5" ry="1.5"></rect>
        <path fill="#fff" d="M911.79 589.07h57.16c.83 0 1.5.67 1.5 1.5v3.65c0 .83-.67 1.5-1.5 1.5h-57.16c-.83 0-1.5-.67-1.5-1.5v-3.65c0-.83.67-1.5 1.5-1.5ZM978.51 589.07h18.03c.83 0 1.5.67 1.5 1.5v3.65c0 .83-.67 1.5-1.5 1.5h-18.03c-.83 0-1.5-.67-1.5-1.5v-3.65c0-.83.67-1.5 1.5-1.5ZM877.18 595.72h25.05c.83 0 1.5-.68 1.5-1.5v-3.66c0-.82-.67-1.5-1.5-1.5h-25.05c-.83 0-1.5.67-1.5 1.5v3.66c0 .82.67 1.5 1.5 1.5ZM927.08 607.44v-3.65c0-.82-.67-1.5-1.5-1.5h-48.4c-.83 0-1.5.67-1.5 1.5v3.65c0 .82.67 1.5 1.5 1.5h48.4c.83 0 1.5-.68 1.5-1.5ZM1036.75 589.07h-30.65c-.83 0-1.5.68-1.5 1.5v3.66c0 .82.67 1.5 1.5 1.5h30.65c.83 0 1.5-.68 1.5-1.5v-3.66c0-.82-.67-1.5-1.5-1.5ZM1036.75 602.29h-10.61c-.82 0-1.5.68-1.5 1.5v3.65c0 .82.68 1.5 1.5 1.5h10.61c.83 0 1.5-.68 1.5-1.5v-3.65c0-.82-.67-1.5-1.5-1.5Z"></path>
      </g>
    </g>
    <rect width="193.13" height="77.9" x="845.13" y="627.11" fill="url(#al)" rx="5.12" ry="5.12"></rect>
    <g>
      <g>
        <g>
          <path fill="#0087a5" d="m1428.85,356.13l-113.22-19.96-3.04,17.25,45.84,8.08c-3.64,2.72-6.31,6.77-7.16,11.6-1.78,10.07,4.95,19.67,15.02,21.45,5.66,1,11.18-.69,15.24-4.15-.05.27-.12.54-.16.81-4.11,23.3,11.45,45.52,34.75,49.63,23.3,4.11,45.52-11.45,49.63-34.75,4.11-23.3-11.45-45.52-34.75-49.63-.72-.13-1.43-.23-2.14-.32Zm19.65,46.91c-2.43,13.75-15.59,22.97-29.34,20.55-13.75-2.43-22.97-15.59-20.55-29.34,2.33-13.23,14.6-22.25,27.77-20.77l1.62.28v-.05c13.73,2.45,22.92,15.6,20.5,29.33Z"></path>
          <rect width="17.57" height="79.39" x="1344.42" y="311.96" fill="url(#k)" transform="rotate(-80 1353.206 351.657)"></rect>
        </g>
        <g>
          <path fill="#0087a5" d="m1431,315.26c23.3-4.11,38.86-26.33,34.75-49.63-4.11-23.3-26.33-38.86-49.63-34.75-23.3,4.11-38.86,26.33-34.75,49.63.05.27.11.54.16.81-4.06-3.46-9.58-5.15-15.24-4.15-10.07,1.78-16.8,11.38-15.02,21.45.85,4.83,3.52,8.88,7.16,11.6l-45.84,8.08,3.04,17.25,113.22-19.96c.71-.09,1.43-.2,2.14-.32Zm-2.99-17.26v-.05s-1.63.29-1.63.29c-13.17,1.49-25.44-7.54-27.77-20.77-2.43-13.75,6.79-26.92,20.55-29.34,13.75-2.43,26.92,6.79,29.34,20.55,2.42,13.74-6.77,26.88-20.49,29.33Z"></path>
          <rect width="17.57" height="79.39" x="1344.42" y="280.36" fill="url(#am)" transform="rotate(80 1353.208 320.057)"></rect>
        </g>
      </g>
      <path fill="#00416d" d="m1040.67,289.12c-.9.4-1.07,1.59-.33,2.24,1.32,1.16,2.07,2.61,4.79,3.09,4.22.74,4.76-2.32,8.98-1.57,4.22.74,3.68,3.8,7.9,4.55,4.22.74,4.76-2.32,8.98-1.57,4.22.74,3.68,3.8,7.9,4.55,4.22.74,4.76-2.32,8.98-1.57,4.22.74,3.68,3.8,7.9,4.55,4.22.74,4.76-2.32,8.98-1.57,4.22.74,3.68,3.8,7.9,4.55,4.22.74,4.76-2.32,8.98-1.57,4.22.74,3.68,3.81,7.9,4.55,4.22.74,4.76-2.32,8.98-1.57,4.22.74,3.68,3.8,7.9,4.55,4.22.74,4.76-2.32,8.98-1.57,4.22.74,3.68,3.8,7.9,4.55,4.22.74,4.76-2.32,8.98-1.57,4.22.74,3.68,3.8,7.9,4.55,4.22.74,4.76-2.32,8.98-1.57,4.22.74,3.68,3.8,7.9,4.55,4.22.74,4.76-2.32,8.98-1.57,4.22.74,3.68,3.81,7.9,4.55,4.22.74,4.76-2.32,8.98-1.57,4.22.74,3.68,3.81,7.9,4.55,4.22.74,4.76-2.32,8.98-1.57,4.22.74,3.68,3.8,7.9,4.55s4.76-2.32,8.98-1.57c4.22.74,3.68,3.81,7.9,4.55,4.22.74,4.76-2.32,8.99-1.57,4.22.74,3.68,3.81,7.9,4.55,3.98.7,4.69-1.97,8.3-1.66.84-.66,1.45-1.6,1.66-2.73l3.51-18.64c.4-2.13-.75-4.24-2.76-5.06-12-4.87-53.35-20.96-92.22-27.8-91.92-16.2-144.39,2.28-159.32,8.88Z"></path>
      <path fill="url(#m)" d="m1292.21,308.04c-12-4.87-53.35-20.96-92.22-27.8-25.3-4.46-47.6-6.29-66.97-6.46v35.23s.07-.03.11-.04c1.56-.65,2.76-1.67,5.4-1.21,2.11.37,3.03,1.32,3.95,2.27.57.59,1.15,1.19,2.02,1.64.35.18.74.34,1.2.47.23.06.47.12.74.17.26.05.51.08.75.1.47.04.9.02,1.28-.03.58-.08,1.08-.24,1.55-.43,1.56-.65,2.76-1.67,5.4-1.21.53.09.98.22,1.38.38.79.31,1.37.73,1.86,1.19.25.23.48.47.71.7.11.12.23.24.35.36.35.35.73.7,1.18,1,.61.4,1.37.73,2.42.92.53.09,1,.13,1.42.12.43-.01.81-.07,1.17-.15.36-.09.68-.2.99-.33,1.56-.65,2.76-1.67,5.4-1.21,2.11.37,3.03,1.32,3.95,2.27.12.12.23.24.35.36.7.71,1.49,1.37,2.87,1.75.23.06.47.12.74.17.79.14,1.45.15,2.03.07,2.52-.34,3.52-2.24,6.95-1.64,2.64.47,3.42,1.83,4.66,2.98.25.23.52.45.82.65.3.2.65.39,1.04.54.4.16.85.29,1.38.38,1.06.19,1.88.13,2.59-.04.35-.09.68-.2.99-.33.16-.06.31-.13.46-.2,1.36-.63,2.56-1.42,4.94-1,1.85.33,2.78,1.09,3.6,1.92,1.06,1.06,1.92,2.21,4.3,2.63,2.11.37,3.3-.21,4.49-.79.15-.07.3-.14.45-.22.3-.14.61-.27.94-.39.82-.28,1.78-.42,3.1-.18,4.22.74,3.68,3.8,7.9,4.55.79.14,1.45.15,2.03.07,2.52-.34,3.52-2.24,6.95-1.64,1.85.33,2.78,1.09,3.6,1.92.12.12.23.24.35.36.92.95,1.84,1.9,3.95,2.27,2.64.47,3.84-.56,5.4-1.21.16-.06.32-.13.48-.18.33-.11.68-.2,1.07-.25.58-.08,1.24-.07,2.03.07,2.37.42,3.24,1.57,4.3,2.63.82.82,1.76,1.59,3.6,1.92,1.73.31,2.84-.03,3.84-.48.22-.1.44-.2.65-.31.25-.12.51-.24.77-.36.66-.29,1.38-.52,2.3-.54.43-.01.9.02,1.43.12,4.22.74,3.68,3.81,7.9,4.55,2.49.44,3.7-.44,5.14-1.09.86-.39,1.81-.69,3.16-.57.84-.66,1.45-1.6,1.66-2.73l3.51-18.64c.4-2.13-.75-4.24-2.76-5.06Z"></path>
      <path fill="#00033d" d="m1292.13,327.91c-.21,1.13-.82,2.07-1.66,2.73-3.61-.31-4.32,2.36-8.3,1.66-4.22-.74-3.68-3.81-7.9-4.55-4.22-.74-4.76,2.32-8.99,1.57-4.22-.74-3.68-3.8-7.9-4.55-4.22-.74-4.76,2.32-8.98,1.57-4.22-.74-3.68-3.8-7.9-4.55-4.22-.74-4.76,2.32-8.98,1.57-4.22-.74-3.68-3.8-7.9-4.55-4.22-.74-4.76,2.32-8.98,1.57-4.22-.74-3.68-3.81-7.9-4.55-4.22-.74-4.76,2.32-8.98,1.57-4.22-.74-3.68-3.8-7.9-4.55-4.22-.74-4.76,2.32-8.98,1.57-4.22-.74-3.68-3.8-7.9-4.55-4.22-.74-4.76,2.32-8.98,1.57-4.22-.74-3.68-3.8-7.9-4.55-4.22-.74-4.76,2.32-8.98,1.57-4.22-.74-3.68-3.8-7.9-4.55-4.22-.74-4.76,2.32-8.98,1.57-4.22-.74-3.68-3.8-7.9-4.55-4.22-.74-4.76,2.32-8.98,1.57-4.22-.74-3.68-3.8-7.9-4.55-4.22-.74-4.76,2.32-8.98,1.57-4.22-.74-3.68-3.8-7.9-4.55-4.22-.74-4.76,2.32-8.98,1.57-4.22-.74-3.68-3.8-7.9-4.55-4.22-.74-4.76,2.32-8.98,1.57-4.22-.74-3.68-3.8-7.9-4.55-4.22-.74-4.76,2.32-8.98,1.57-1.97-.35-2.91-1.2-3.78-2.09-.48.2-.94.4-1.36.59-.9.4-1.07,1.59-.33,2.24,1.32,1.16,2.07,2.61,4.79,3.09,4.22.74,4.76-2.32,8.98-1.57,4.22.74,3.68,3.8,7.9,4.55,4.22.74,4.76-2.32,8.98-1.57,4.22.74,3.68,3.8,7.9,4.55,4.22.74,4.76-2.32,8.98-1.57,4.22.74,3.68,3.8,7.9,4.55,4.22.74,4.76-2.32,8.98-1.57,4.22.74,3.68,3.8,7.9,4.55,4.22.74,4.76-2.32,8.98-1.57,4.22.74,3.68,3.81,7.9,4.55,4.22.74,4.76-2.32,8.98-1.57,4.22.74,3.68,3.8,7.9,4.55,4.22.74,4.76-2.32,8.98-1.57,4.22.74,3.68,3.8,7.9,4.55,4.22.74,4.76-2.32,8.98-1.57,4.22.74,3.68,3.8,7.9,4.55,4.22.74,4.76-2.32,8.98-1.57,4.22.74,3.68,3.81,7.9,4.55,4.22.74,4.76-2.32,8.98-1.57,4.22.74,3.68,3.8,7.9,4.55,4.22.74,4.76-2.32,8.98-1.57,4.22.74,3.68,3.81,7.9,4.55,4.22.74,4.76-2.32,8.98-1.57,4.22.74,3.68,3.8,7.9,4.55,4.22.74,4.76-2.32,8.98-1.57,4.22.74,3.68,3.81,7.9,4.55,4.22.74,4.76-2.32,8.99-1.57,4.22.74,3.68,3.81,7.9,4.55,3.98.7,4.69-1.97,8.3-1.66.84-.66,1.45-1.6,1.66-2.73l3.51-18.64c.03-.17.04-.34.05-.51l-2.88,15.32Z" opacity=".75"></path>
    </g>
    <g>
      <path fill="#ff4a0b" d="m1147.5,243.74h-203.22c-7.23,0-13.1,5.86-13.1,13.1v58.12s0,3.16,0,3.16c.8-.57,1.66-1.1,3.25-1.1,3.48,0,3.48,2.53,6.97,2.53s3.48-2.53,6.97-2.53,3.48,2.53,6.97,2.53,3.48-2.53,6.97-2.53,3.48,2.53,6.97,2.53,3.48-2.53,6.96-2.53,3.48,2.53,6.97,2.53,3.48-2.53,6.96-2.53,3.48,2.53,6.96,2.53,3.48-2.53,6.96-2.53,3.48,2.53,6.97,2.53,3.48-2.53,6.97-2.53,3.48,2.53,6.97,2.53,3.48-2.53,6.97-2.53,3.48,2.53,6.97,2.53,3.48-2.53,6.97-2.53,3.48,2.53,6.97,2.53,3.48-2.53,6.97-2.53,3.48,2.53,6.97,2.53,3.48-2.53,6.97-2.53,3.48,2.53,6.97,2.53,3.48-2.53,6.97-2.53,3.48,2.53,6.97,2.53,3.48-2.53,6.97-2.53,3.48,2.53,6.97,2.53,3.48-2.53,6.97-2.53,3.48,2.53,6.97,2.53,3.48-2.53,6.96-2.53,3.48,2.53,6.97,2.53,3.48-2.53,6.96-2.53,3.48,2.53,6.96,2.53,3.48-2.53,6.96-2.53c1.59,0,2.45.52,3.25,1.09v-61.27c0-7.23-5.86-13.1-13.09-13.1Z"></path>
      <path fill="#00416d" d="m1160.6,314.95c-.8-.57-1.66-1.09-3.25-1.09-3.48,0-3.48,2.53-6.96,2.53s-3.48-2.53-6.96-2.53-3.48,2.53-6.96,2.53-3.48-2.53-6.97-2.53-3.48,2.53-6.96,2.53-3.48-2.53-6.97-2.53-3.48,2.53-6.97,2.53-3.48-2.53-6.97-2.53-3.48,2.53-6.97,2.53-3.48-2.53-6.97-2.53-3.48,2.53-6.97,2.53-3.48-2.53-6.97-2.53-3.48,2.53-6.97,2.53-3.48-2.53-6.97-2.53-3.48,2.53-6.97,2.53-3.48-2.53-6.97-2.53-3.48,2.53-6.97,2.53-3.48-2.53-6.97-2.53-3.48,2.53-6.97,2.53-3.48-2.53-6.97-2.53-3.48,2.53-6.97,2.53-3.48-2.53-6.97-2.53-3.48,2.53-6.96,2.53-3.48-2.53-6.96-2.53-3.48,2.53-6.96,2.53-3.48-2.53-6.97-2.53-3.48,2.53-6.96,2.53-3.48-2.53-6.97-2.53-3.48,2.53-6.97,2.53-3.48-2.53-6.97-2.53-3.48,2.53-6.97,2.53-3.48-2.53-6.97-2.53c-1.59,0-2.45.53-3.25,1.1v3.16c.8-.57,1.66-1.1,3.25-1.1,3.48,0,3.48,2.53,6.97,2.53s3.48-2.53,6.97-2.53,3.48,2.53,6.97,2.53,3.48-2.53,6.97-2.53,3.48,2.53,6.97,2.53,3.48-2.53,6.96-2.53,3.48,2.53,6.97,2.53,3.48-2.53,6.96-2.53,3.48,2.53,6.96,2.53,3.48-2.53,6.96-2.53,3.48,2.53,6.97,2.53,3.48-2.53,6.97-2.53,3.48,2.53,6.97,2.53,3.48-2.53,6.97-2.53,3.48,2.53,6.97,2.53,3.48-2.53,6.97-2.53,3.48,2.53,6.97,2.53,3.48-2.53,6.97-2.53,3.48,2.53,6.97,2.53,3.48-2.53,6.97-2.53,3.48,2.53,6.97,2.53,3.48-2.53,6.97-2.53,3.48,2.53,6.97,2.53,3.48-2.53,6.97-2.53,3.48,2.53,6.97,2.53,3.48-2.53,6.97-2.53,3.48,2.53,6.97,2.53,3.48-2.53,6.96-2.53,3.48,2.53,6.97,2.53,3.48-2.53,6.96-2.53,3.48,2.53,6.96,2.53,3.48-2.53,6.96-2.53c1.59,0,2.45.52,3.25,1.09v-3.16Z"></path>
      <g>
        <path fill="#fff" d="M954.16 290.71v-23.83h8.9c2.62 0 4.8.53 6.56 1.59 1.76 1.06 3.08 2.5 3.98 4.3.89 1.8 1.34 3.8 1.34 5.99 0 2.42-.49 4.52-1.48 6.31-.98 1.79-2.37 3.18-4.14 4.16-1.78.98-3.87 1.48-6.26 1.48h-8.9Zm15.17-11.95c0-1.39-.25-2.61-.74-3.68-.49-1.06-1.21-1.89-2.15-2.48-.94-.59-2.07-.89-3.39-.89h-3.39v14.16h3.39c1.34 0 2.48-.31 3.41-.92.93-.61 1.64-1.47 2.13-2.55.49-1.08.74-2.3.74-3.64ZM979.87 290.71v-23.83h5.51v23.83h-5.51ZM1005.92 273.9c-.07-.11-.3-.28-.71-.52-.4-.24-.91-.49-1.51-.75-.6-.27-1.26-.5-1.98-.71-.72-.2-1.43-.3-2.15-.3-.94 0-1.67.16-2.18.48-.51.32-.77.82-.77 1.48 0 .53.2.96.59 1.27.39.31.96.58 1.7.82.74.23 1.64.51 2.72.82 1.52.4 2.84.88 3.96 1.45 1.12.57 1.97 1.29 2.57 2.18.59.89.89 2.07.89 3.53 0 1.33-.25 2.46-.74 3.38-.49.92-1.16 1.67-2 2.23-.84.57-1.8.98-2.87 1.23-1.07.26-2.18.38-3.32.38s-2.36-.12-3.57-.35c-1.22-.23-2.39-.57-3.51-1.01-1.12-.44-2.15-.97-3.09-1.6l2.42-4.8c.09.11.38.32.87.62.49.3 1.1.62 1.83.94.73.32 1.54.61 2.43.85.89.25 1.8.37 2.72.37.98 0 1.72-.15 2.2-.46.48-.31.72-.73.72-1.28 0-.6-.25-1.07-.76-1.4-.5-.33-1.19-.63-2.05-.9-.86-.27-1.85-.57-2.97-.9-1.46-.45-2.66-.95-3.61-1.5-.95-.56-1.66-1.23-2.12-2.03-.46-.8-.69-1.8-.69-3 0-1.67.4-3.08 1.19-4.22.79-1.15 1.86-2.01 3.21-2.6 1.34-.59 2.81-.89 4.4-.89 1.12 0 2.2.13 3.24.4 1.04.27 2.01.6 2.92 1.01.91.4 1.72.81 2.43 1.21l-2.42 4.56ZM1012.56 278.56c0-1.45.27-2.88.8-4.28.54-1.4 1.32-2.67 2.35-3.81 1.03-1.14 2.28-2.05 3.76-2.74 1.48-.68 3.15-1.02 5.04-1.02 2.24 0 4.18.48 5.82 1.44 1.64.96 2.87 2.22 3.68 3.76l-4.23 2.95c-.36-.85-.83-1.51-1.43-1.98-.59-.47-1.24-.8-1.95-.99-.7-.19-1.38-.29-2.03-.29-1.05 0-1.97.21-2.75.62-.78.41-1.43.97-1.95 1.66-.51.69-.9 1.47-1.14 2.32-.25.85-.37 1.7-.37 2.55 0 .94.14 1.85.44 2.72.29.87.71 1.64 1.26 2.32.55.67 1.21 1.2 2 1.6.78.39 1.64.59 2.58.59.67 0 1.35-.11 2.05-.34.69-.22 1.34-.58 1.93-1.06.59-.48 1.04-1.11 1.36-1.9l4.5 2.65c-.47 1.16-1.24 2.16-2.32 2.99-1.07.83-2.29 1.46-3.64 1.9-1.35.44-2.69.65-4.01.65-1.72 0-3.31-.35-4.75-1.06-1.44-.7-2.69-1.64-3.73-2.82-1.04-1.17-1.85-2.49-2.42-3.96-.57-1.47-.86-2.96-.86-4.48ZM1048.81 290.88c-1.79 0-3.41-.34-4.85-1.02-1.44-.68-2.69-1.6-3.73-2.75s-1.84-2.45-2.4-3.89c-.56-1.44-.84-2.94-.84-4.48s.3-3.1.89-4.53c.59-1.43 1.42-2.71 2.48-3.84 1.06-1.13 2.32-2.02 3.78-2.67 1.45-.65 3.04-.97 4.77-.97s3.37.34 4.82 1.02c1.44.68 2.69 1.61 3.73 2.77 1.04 1.16 1.84 2.47 2.4 3.91.56 1.44.84 2.92.84 4.41 0 1.59-.29 3.1-.87 4.53-.58 1.43-1.41 2.71-2.48 3.84-1.07 1.13-2.33 2.03-3.78 2.69-1.44.66-3.03.99-4.75.99Zm-6.21-12.08c0 .92.13 1.81.4 2.67.27.86.67 1.63 1.19 2.3.53.67 1.18 1.21 1.96 1.61.78.4 1.68.61 2.69.61s1.97-.21 2.75-.62c.78-.41 1.43-.97 1.95-1.66.51-.69.9-1.47 1.16-2.33.26-.86.39-1.74.39-2.64s-.13-1.8-.4-2.65c-.27-.85-.67-1.62-1.21-2.3-.54-.68-1.2-1.21-1.98-1.59-.78-.38-1.67-.57-2.65-.57-1.05 0-1.96.2-2.74.6-.77.4-1.42.95-1.95 1.63-.53.68-.92 1.45-1.18 2.31-.26.86-.39 1.74-.39 2.64ZM1075.8 290.88c-1.9 0-3.53-.32-4.87-.95-1.34-.64-2.43-1.51-3.27-2.62-.84-1.1-1.45-2.37-1.85-3.79-.39-1.42-.59-2.91-.59-4.47v-12.17h5.51v12.16c0 .89.09 1.76.27 2.6s.47 1.58.87 2.23c.4.65.92 1.16 1.56 1.54.64.38 1.43.57 2.37.57s1.77-.2 2.42-.59c.65-.39 1.16-.92 1.54-1.57.38-.66.66-1.4.84-2.23.18-.83.27-1.67.27-2.55v-12.16h5.5v12.17c0 1.65-.21 3.2-.62 4.62-.42 1.43-1.05 2.69-1.9 3.77-.85 1.08-1.94 1.93-3.27 2.53-1.33.6-2.93.91-4.78.91ZM1097.82 277.09v13.63h-5.51v-23.83h4.36l11.04 14.03v-14.03h5.5v23.83h-4.5l-10.91-13.63ZM1137.62 271.72h-7.25v19h-5.5v-19h-7.28v-4.83h20.04v4.83Z"></path>
      </g>
      <path fill="url(#l)" d="m1045,256.84h-39.41c-.38,0-.69.31-.69.69s.31.69.69.69h39.41c.38,0,.69-.31.69-.69s-.31-.69-.69-.69Zm-44.92,0h-52.76c-1.68,0-3.04,1.37-3.04,3.04v37.84c0,1.68,1.37,3.04,3.04,3.04h36.25v1.04c0,.22.25.35.43.23l2.57-1.73c.16-.11.16-.35,0-.46l-2.57-1.73c-.18-.12-.43,0-.43.23v1.04h-36.25c-.92,0-1.67-.75-1.67-1.67v-37.84c0-.92.75-1.67,1.67-1.67h52.76c.38,0,.69-.31.69-.69s-.31-.69-.69-.69Zm73.27,0h-3.68c-.38,0-.69.31-.69.69s.31.69.69.69h3.68c.38,0,.69-.31.69-.69s-.31-.69-.69-.69Zm-9.19,0h-13.64c-.38,0-.69.31-.69.69s.31.69.69.69h13.64c.38,0,.69-.31.69-.69s-.31-.69-.69-.69Z"></path>
      <path fill="url(#an)" d="m1144.46,256.84h-36.25v-1.04c0-.22-.25-.35-.43-.23l-2.57,1.73c-.16.11-.16.35,0,.46l2.57,1.73c.18.12.43,0,.43-.23v-1.04h36.25c.92,0,1.67.75,1.67,1.67v37.84c0,.92-.75,1.67-1.67,1.67h-52.76c-.38,0-.69.31-.69.69s.31.69.69.69h52.76c1.68,0,3.04-1.37,3.04-3.04v-37.84c0-1.68-1.37-3.04-3.04-3.04Zm-103.19,42.55h-13.64c-.38,0-.69.31-.69.69s.31.69.69.69h13.64c.38,0,.69-.31.69-.69s-.31-.69-.69-.69Zm-19.16,0h-3.68c-.38,0-.69.31-.69.69s.31.69.69.69h3.68c.38,0,.69-.31.69-.69s-.31-.69-.69-.69Zm64.08,0h-39.41c-.38,0-.69.31-.69.69s.31.69.69.69h39.41c.38,0,.69-.31.69-.69s-.31-.69-.69-.69Z"></path>
    </g>
    <rect width="89.81" height="27.57" x="610.31" y="650.29" fill="#ff4a0b" rx="6.49" ry="6.49"></rect>
    <g>
      <rect width="39.68" height="5.55" x="971.33" y="664.37" fill="#fff"></rect>
      <path fill="#ff4a0b" d="M1011.01 661.42c0-.23-.1-.45-.25-.6-.15-.15-.37-.25-.6-.25-2.74 0-5.47 0-8.21 0-7.05 0-14.1 0-21.15 0h-8.62c-.23 0-.45.1-.6.25-.15.15-.25.37-.25.6v2.95h39.68v-2.95ZM971.33 669.92v16.09c0 .23.1.45.25.6s.37.25.6.25h37.97c.23 0 .45-.1.6-.25s.25-.37.25-.6v-16.09h-39.68Zm36.51 14.57h-9.98c-.44 0-.79-.35-.79-.79s.35-.79.79-.79h9.98c.44 0 .79.35.79.79s-.35.79-.79.79Zm0-3.96h-9.98c-.44 0-.79-.35-.79-.79s.35-.79.79-.79h9.98c.44 0 .79.35.79.79s-.35.79-.79.79Z"></path>
      <rect width="36.51" height="5.55" x="982.01" y="648.8" fill="#ff4a0b"></rect>
      <path fill="#fff" d="m1020.11,648.07c0-1.56-1.26-2.82-2.82-2.82h-34.05c-1.56,0-2.82,1.26-2.82,2.82v10.12c0,.44.35.79.79.79h0c.44,0,.79-.35.79-.79v-10.12c0-.68.55-1.23,1.23-1.23h34.04c.68,0,1.23.55,1.23,1.23v20.66c0,.68-.55,1.23-1.23,1.23h-3.9c-.44,0-.79.35-.79.79s.35.79.79.79h3.9c1.56,0,2.82-1.26,2.82-2.82v-20.66Z"></path>
    </g>
    <path fill="#fff" d="m886.36,676.8c-.95,1.41-2.38,2.53-4.29,3.35-1.06.46-2.26.78-3.57.98v5.1c0,.35-.28.63-.63.63h-4.8c-.35,0-.63-.28-.63-.63v-5c-1.41-.15-2.8-.41-4.15-.8-.08-.02-.14-.05-.22-.07-.17-.05-.33-.11-.5-.16h0l-.25-.08c-1.75-.59-3.53-1.68-3.53-1.68-.44-.27-.63-.89-.42-1.36l1.56-3.47c.22-.48.76-.64,1.2-.37,0,0,1.65,1.01,3.16,1.55.2.07.39.15.59.21.05.02.11.03.16.04,1.71.54,3.42.81,5.13.81,1.96,0,3.41-.29,4.35-.87.94-.58,1.4-1.36,1.4-2.33,0-.71-.28-1.3-.83-1.77-.55-.47-1.27-.85-2.13-1.13-.87-.29-2.04-.6-3.52-.94-2.28-.54-4.14-1.08-5.59-1.61-1.45-.54-2.69-1.41-3.73-2.6-1.04-1.19-1.56-2.79-1.56-4.78,0-1.73.47-3.31,1.41-4.71.94-1.41,2.35-2.52,4.24-3.35.96-.42,2.04-.73,3.22-.93v-4.94c0-.35.29-.63.63-.63h4.8c.35,0,.63.29.63.63v4.76c1.09.11,2.17.29,3.23.56.17.04.33.1.5.14.16.04.33.09.5.14,0,0,.01,0,.02,0l.25.08c1.3.42,2.67,1.15,2.67,1.15.46.25.68.84.48,1.33l-1.42,3.48c-.2.49-.74.69-1.2.45,0,0-1.39-.7-2.51-1.08-.25-.08-.5-.17-.75-.24-1.39-.39-2.77-.59-4.16-.59-1.93,0-3.36.32-4.29.94-.92.62-1.39,1.45-1.39,2.47s.53,1.79,1.6,2.28c1.06.5,2.69.99,4.88,1.47,2.27.54,4.13,1.08,5.58,1.62,1.45.54,2.69,1.39,3.73,2.56,1.04,1.17,1.56,2.75,1.56,4.73,0,1.7-.48,3.26-1.43,4.67Z"></path>
    <path fill="#fff" d="m922.38,676.8c-.95,1.41-2.38,2.53-4.29,3.35-1.06.46-2.26.78-3.57.98v5.1c0,.35-.28.63-.63.63h-4.8c-.35,0-.63-.28-.63-.63v-5c-1.41-.15-2.8-.41-4.15-.8-.08-.02-.14-.05-.22-.07-.17-.05-.33-.11-.5-.16h0l-.25-.08c-1.75-.59-3.53-1.68-3.53-1.68-.44-.27-.63-.89-.42-1.36l1.56-3.47c.22-.48.76-.64,1.2-.37,0,0,1.65,1.01,3.16,1.55.2.07.39.15.59.21.05.02.11.03.16.04,1.71.54,3.42.81,5.13.81,1.96,0,3.41-.29,4.35-.87.94-.58,1.4-1.36,1.4-2.33,0-.71-.28-1.3-.83-1.77-.55-.47-1.27-.85-2.13-1.13-.87-.29-2.04-.6-3.52-.94-2.28-.54-4.14-1.08-5.59-1.61-1.45-.54-2.69-1.41-3.73-2.6-1.04-1.19-1.56-2.79-1.56-4.78,0-1.73.47-3.31,1.41-4.71.94-1.41,2.35-2.52,4.24-3.35.96-.42,2.04-.73,3.22-.93v-4.94c0-.35.29-.63.63-.63h4.8c.35,0,.63.29.63.63v4.76c1.09.11,2.17.29,3.23.56.17.04.33.1.5.14.16.04.33.09.5.14,0,0,.01,0,.02,0l.25.08c1.3.42,2.67,1.15,2.67,1.15.46.25.68.84.48,1.33l-1.42,3.48c-.2.49-.74.69-1.2.45,0,0-1.39-.7-2.51-1.08-.25-.08-.5-.17-.75-.24-1.39-.39-2.77-.59-4.16-.59-1.93,0-3.36.32-4.29.94-.92.62-1.39,1.45-1.39,2.47s.53,1.79,1.6,2.28c1.06.5,2.69.99,4.88,1.47,2.27.54,4.13,1.08,5.58,1.62,1.45.54,2.69,1.39,3.73,2.56,1.04,1.17,1.56,2.75,1.56,4.73,0,1.7-.48,3.26-1.43,4.67Z" opacity=".75"></path>
    <path fill="#fff" d="m958.39,676.8c-.95,1.41-2.38,2.53-4.29,3.35-1.06.46-2.26.78-3.57.98v5.1c0,.35-.28.63-.63.63h-4.8c-.35,0-.63-.28-.63-.63v-5c-1.41-.15-2.8-.41-4.15-.8-.08-.02-.14-.05-.22-.07-.17-.05-.33-.11-.5-.16h0l-.25-.08c-1.75-.59-3.53-1.68-3.53-1.68-.44-.27-.63-.89-.42-1.36l1.56-3.47c.22-.48.76-.64,1.2-.37,0,0,1.65,1.01,3.16,1.55.2.07.39.15.59.21.05.02.11.03.16.04,1.71.54,3.42.81,5.13.81,1.96,0,3.41-.29,4.35-.87.94-.58,1.4-1.36,1.4-2.33,0-.71-.28-1.3-.83-1.77-.55-.47-1.27-.85-2.13-1.13-.87-.29-2.04-.6-3.51-.94-2.28-.54-4.14-1.08-5.59-1.61-1.45-.54-2.69-1.41-3.73-2.6-1.04-1.19-1.56-2.79-1.56-4.78,0-1.73.47-3.31,1.41-4.71.94-1.41,2.35-2.52,4.24-3.35.96-.42,2.04-.73,3.22-.93v-4.94c0-.35.29-.63.63-.63h4.8c.35,0,.63.29.63.63v4.76c1.09.11,2.17.29,3.23.56.17.04.33.1.5.14.16.04.33.09.5.14,0,0,.01,0,.02,0l.25.08c1.3.42,2.67,1.15,2.67,1.15.46.25.68.84.48,1.33l-1.42,3.48c-.2.49-.74.69-1.2.45,0,0-1.39-.7-2.51-1.08-.25-.08-.5-.17-.75-.24-1.39-.39-2.77-.59-4.16-.59-1.93,0-3.36.32-4.29.94-.92.62-1.39,1.45-1.39,2.47s.53,1.79,1.6,2.28c1.06.5,2.69.99,4.88,1.47,2.27.54,4.13,1.08,5.58,1.62,1.45.54,2.69,1.39,3.73,2.56,1.04,1.17,1.56,2.75,1.56,4.73,0,1.7-.48,3.26-1.43,4.67Z" opacity=".5"></path>
    <g>
      <path fill="#00416d" d="m1286.18,336.33c-.13.02-.25.09-.34.18-.88.9-1.81,1.78-3.82,2.13-4.22.74-4.76-2.32-8.98-1.57-4.22.74-3.68,3.81-7.91,4.55-4.22.74-4.76-2.32-8.98-1.57-4.22.74-3.68,3.8-7.9,4.55-4.22.74-4.76-2.32-8.98-1.57-4.22.74-3.68,3.81-7.9,4.55-4.22.74-4.76-2.32-8.98-1.57-4.22.74-3.68,3.81-7.9,4.55-4.22.74-4.76-2.32-8.98-1.57-4.22.74-3.68,3.8-7.9,4.55-4.22.74-4.76-2.32-8.98-1.57-4.22.74-3.68,3.81-7.9,4.55-4.22.74-4.76-2.32-8.98-1.57-4.22.74-3.68,3.8-7.9,4.55-4.22.74-4.76-2.32-8.98-1.57-4.22.74-3.68,3.8-7.9,4.55-4.22.74-4.76-2.32-8.98-1.57-4.22.74-3.68,3.8-7.9,4.55-4.22.74-4.76-2.32-8.98-1.57-4.22.74-3.68,3.8-7.9,4.55-4.22.74-4.76-2.32-8.98-1.57-4.22.74-3.68,3.8-7.9,4.55-4.22.74-4.76-2.32-8.98-1.57-4.22.74-3.68,3.8-7.9,4.55-4.22.74-4.76-2.32-8.98-1.57-4.22.74-3.68,3.8-7.9,4.55-4.22.74-4.76-2.32-8.98-1.57-4.22.74-3.68,3.8-7.9,4.55-3.52.62-4.48-1.39-7.15-1.65-.41-.04-.82.12-1.11.42,0,.01-.02.02-.03.03-.62.65-.44,1.72.37,2.12,9.56,4.72,62.83,27.76,162.22,10.24,38.87-6.85,80.23-22.93,92.22-27.8,2.01-.81,3.16-2.93,2.76-5.06l-3.51-18.64c-.46-2.45-2.81-4.07-5.26-3.64h0Z"></path>
      <path fill="url(#ao)" d="m1294.95,358.61l-3.51-18.64c-.46-2.45-2.81-4.07-5.26-3.64-.13.02-.25.09-.34.18-.11.11-.22.23-.33.34-.23.22-.47.44-.73.64-.66.51-1.5.93-2.75,1.15-4.22.74-4.76-2.32-8.98-1.57-4.22.74-3.68,3.81-7.91,4.55-4.22.74-4.76-2.32-8.98-1.57-4.22.74-3.68,3.8-7.9,4.55-4.22.74-4.76-2.32-8.98-1.57-4.22.74-3.68,3.8-7.9,4.55-4.22.74-4.76-2.32-8.98-1.57-4.22.74-3.68,3.81-7.9,4.55-4.22.74-4.76-2.32-8.98-1.57-4.22.74-3.68,3.8-7.9,4.55-4.22.74-4.76-2.32-8.98-1.57-4.22.74-3.68,3.8-7.9,4.55-4.22.74-4.76-2.32-8.98-1.57-4.22.74-3.68,3.8-7.9,4.55-4.22.74-4.76-2.32-8.98-1.57-4.22.74-3.68,3.8-7.9,4.55-4.22.74-4.76-2.32-8.98-1.57-2.83.5-3.52,2.04-4.94,3.23v33.82c19.36-.18,41.66-2.01,66.95-6.46,38.87-6.85,80.23-22.93,92.22-27.8,2.01-.81,3.16-2.93,2.76-5.06Z"></path>
      <path fill="#00033d" d="m1062.53,377.34c-4.22.74-4.76-2.32-8.98-1.57-4.22.74-3.68,3.8-7.9,4.55-3.52.62-4.48-1.39-7.15-1.65-.41-.04-.82.12-1.11.42,0,.01-.02.02-.03.03-.62.65-.44,1.72.37,2.12,1.38.68,3.68,1.75,6.89,3.02.5.03,1.05.01,1.69-.1,4.22-.74,3.68-3.8,7.9-4.55,4.22-.74,4.76,2.32,8.98,1.57,4.22-.74,3.68-3.8,7.9-4.55,4.22-.74,4.76,2.32,8.98,1.57,4.22-.74,3.68-3.8,7.9-4.55,4.22-.74,4.76,2.32,8.98,1.57,4.22-.74,3.68-3.8,7.9-4.55,4.22-.74,4.76,2.32,8.98,1.57,4.22-.74,3.68-3.8,7.9-4.55,4.22-.74,4.76,2.32,8.98,1.57,4.22-.74,3.68-3.8,7.9-4.55,4.22-.74,4.76,2.32,8.98,1.57,4.22-.74,3.68-3.8,7.9-4.55,4.22-.74,4.76,2.32,8.98,1.57,4.22-.74,3.68-3.8,7.9-4.55,4.22-.74,4.76,2.32,8.98,1.57,4.22-.74,3.68-3.81,7.9-4.55,4.22-.74,4.76,2.32,8.98,1.57,4.22-.74,3.68-3.81,7.9-4.55,4.22-.74,4.76,2.32,8.98,1.57,4.22-.74,3.68-3.81,7.9-4.55,4.22-.74,4.76,2.32,8.98,1.57,4.22-.74,3.68-3.81,7.9-4.55,4.22-.74,4.76,2.32,8.98,1.57,4.22-.74,3.68-3.81,7.9-4.55,4.22-.74,4.76,2.32,8.98,1.57,4.22-.74,3.68-3.81,7.91-4.55,4.22-.74,4.76,2.32,8.98,1.57,2.01-.35,2.94-1.23,3.82-2.13.09-.09.21-.16.34-.18,2.45-.43,4.8,1.19,5.26,3.64l-.67-3.83c-.46-2.45-2.81-4.07-5.26-3.64-.13.02-.25.09-.34.18-.88.9-1.81,1.78-3.82,2.13-4.22.74-4.76-2.32-8.98-1.57-4.22.74-3.68,3.81-7.91,4.55-4.22.74-4.76-2.32-8.98-1.57-4.22.74-3.68,3.8-7.9,4.55-4.22.74-4.76-2.32-8.98-1.57-4.22.74-3.68,3.81-7.9,4.55-4.22.74-4.76-2.32-8.98-1.57-4.22.74-3.68,3.81-7.9,4.55-4.22.74-4.76-2.32-8.98-1.57-4.22.74-3.68,3.8-7.9,4.55-4.22.74-4.76-2.32-8.98-1.57-4.22.74-3.68,3.81-7.9,4.55-4.22.74-4.76-2.32-8.98-1.57-4.22.74-3.68,3.8-7.9,4.55-4.22.74-4.76-2.32-8.98-1.57-4.22.74-3.68,3.8-7.9,4.55-4.22.74-4.76-2.32-8.98-1.57-4.22.74-3.68,3.8-7.9,4.55-4.22.74-4.76-2.32-8.98-1.57-4.22.74-3.68,3.8-7.9,4.55-4.22.74-4.76-2.32-8.98-1.57-4.22.74-3.68,3.8-7.9,4.55-4.22.74-4.76-2.32-8.98-1.57-4.22.74-3.68,3.8-7.9,4.55-4.22.74-4.76-2.32-8.98-1.57-4.22.74-3.68,3.8-7.9,4.55Z" opacity=".75"></path>
    </g>
    <g>
      <path fill="#00416d" d="m1307.96,303.7c-17.77,0-32.17,14.4-32.17,32.16s14.4,32.15,32.17,32.15,32.16-14.39,32.16-32.15-14.4-32.16-32.16-32.16Z"></path>
      <path fill="#009fb7" d="m1307.96,319.53c-9.03,0-16.33,7.31-16.33,16.33s7.3,16.33,16.33,16.33,16.31-7.31,16.31-16.33-7.3-16.33-16.31-16.33Z"></path>
    </g>
    <path fill="#00416d" d="m1114.15,723.02h-356.8v-21.69c0-24.34-19.8-44.14-44.14-44.14h-13.08v13.79h13.08c16.74,0,30.36,13.62,30.36,30.36v248.62h332.9c35.01,0,63.49-28.48,63.49-63.49v-137.63c0-14.23-11.58-25.81-25.81-25.81Zm12.02,163.44c0,27.41-22.3,49.7-49.7,49.7h-319.12s0-199.36,0-199.36h356.8c6.63,0,12.02,5.39,12.02,12.02v137.63Z"></path>
    <g>
      <path fill="#ff4a0b" d="M1056.54 922.37c-3.81 0-6.89-3.09-6.89-6.89v-158c0-3.81 3.09-6.89 6.89-6.89s6.89 3.09 6.89 6.89v158c0 3.81-3.09 6.89-6.89 6.89ZM980.02 922.37c-3.81 0-6.89-3.09-6.89-6.89v-158c0-3.81 3.09-6.89 6.89-6.89s6.89 3.09 6.89 6.89v158c0 3.81-3.09 6.89-6.89 6.89ZM903.5 922.37c-3.81 0-6.89-3.09-6.89-6.89v-158c0-3.81 3.09-6.89 6.89-6.89s6.89 3.09 6.89 6.89v158c0 3.81-3.09 6.89-6.89 6.89ZM826.98 922.37c-3.81 0-6.89-3.09-6.89-6.89v-158c0-3.81 3.09-6.89 6.89-6.89s6.89 3.09 6.89 6.89v158c0 3.81-3.09 6.89-6.89 6.89Z"></path>
      <path fill="#ff4a0b" d="M1105.49 790.09h-327.46c-3.81 0-6.89-3.09-6.89-6.89s3.09-6.89 6.89-6.89h327.46c3.81 0 6.89 3.09 6.89 6.89s-3.09 6.89-6.89 6.89ZM1105.49 843.38h-327.46c-3.81 0-6.89-3.09-6.89-6.89s3.09-6.89 6.89-6.89h327.46c3.81 0 6.89 3.09 6.89 6.89s-3.09 6.89-6.89 6.89ZM778.03 896.66c-3.81 0-6.89-3.09-6.89-6.89s3.09-6.89 6.89-6.89h327.27c3.81 0 6.89 3.09 6.89 6.89s-3.09 6.89-6.89 6.89h-327.27Z"></path>
      <rect width="28.12" height="13.79" x="833.88" y="776.3" fill="url(#n)"></rect>
      <rect width="28.12" height="13.79" x="791.97" y="776.3" fill="url(#ap)" transform="rotate(180 806.03 783.195)"></rect>
      <rect width="28.12" height="13.79" x="986.92" y="776.3" fill="url(#aq)"></rect>
      <rect width="28.12" height="13.79" x="945.01" y="776.3" fill="url(#ar)" transform="rotate(180 959.07 783.195)"></rect>
      <rect width="28.12" height="13.79" x="910.4" y="829.59" fill="url(#as)"></rect>
      <rect width="28.12" height="13.79" x="868.49" y="829.59" fill="url(#at)" transform="rotate(180 882.55 836.48)"></rect>
      <rect width="28.12" height="13.79" x="1063.44" y="829.59" fill="url(#au)"></rect>
      <rect width="28.12" height="13.79" x="1021.53" y="829.59" fill="url(#av)" transform="rotate(180 1035.59 836.48)"></rect>
      <rect width="28.12" height="13.79" x="833.88" y="882.87" fill="url(#aw)"></rect>
      <rect width="28.12" height="13.79" x="791.97" y="882.87" fill="url(#ax)" transform="rotate(180 806.03 889.77)"></rect>
      <rect width="28.12" height="13.79" x="986.92" y="882.87" fill="url(#ay)"></rect>
      <rect width="28.12" height="13.79" x="945.01" y="882.87" fill="url(#az)" transform="rotate(180 959.07 889.77)"></rect>
      <rect width="28.12" height="13.79" x="812.92" y="850.54" fill="url(#aA)" transform="rotate(90 826.985 857.435)"></rect>
      <rect width="28.12" height="13.79" x="812.92" y="808.63" fill="url(#aB)" transform="rotate(-90 826.98 815.53)"></rect>
      <rect width="18.82" height="13.79" x="894.09" y="899.18" fill="url(#aC)" transform="rotate(90 903.5 906.07)"></rect>
      <rect width="28.12" height="13.79" x="889.44" y="861.92" fill="url(#aD)" transform="rotate(-90 903.505 868.815)"></rect>
      <rect width="18.82" height="13.79" x="1047.13" y="899.18" fill="url(#aE)" transform="rotate(90 1056.545 906.075)"></rect>
      <rect width="28.12" height="13.79" x="1042.48" y="861.92" fill="url(#aF)" transform="rotate(-90 1056.545 868.815)"></rect>
      <rect width="28.12" height="13.79" x="965.96" y="850.54" fill="url(#aG)" transform="rotate(90 980.025 857.435)"></rect>
      <rect width="28.12" height="13.79" x="965.96" y="808.63" fill="url(#aH)" transform="rotate(-90 980.025 815.525)"></rect>
      <rect width="28.12" height="13.79" x="889.44" y="797.26" fill="url(#aI)" transform="rotate(90 903.5 804.15)"></rect>
      <rect width="18.82" height="13.79" x="894.09" y="760" fill="url(#aJ)" transform="rotate(-90 903.505 766.895)"></rect>
      <rect width="28.12" height="13.79" x="1042.48" y="797.26" fill="url(#aK)" transform="rotate(90 1056.545 804.155)"></rect>
      <rect width="18.82" height="13.79" x="1047.13" y="760" fill="url(#aL)" transform="rotate(-90 1056.545 766.895)"></rect>
    </g>
    <rect width="13.79" height="120.36" x="743.57" y="829.59" fill="url(#aM)"></rect>
    <g>
      <path fill="#ff4a0b" d="m868.46,1056.62c-1.8-21.32-19.71-38.12-41.49-38.12s-39.68,16.8-41.47,38.12c-.1,1.16-.16,2.34-.16,3.52,0,22.96,18.68,41.64,41.63,41.64s41.65-18.68,41.65-41.64c0-1.19-.06-2.36-.16-3.52Z"></path>
      <path fill="#fff" d="m854.83,1060.14c0,15.38-12.49,27.85-27.86,27.85s-27.84-12.47-27.84-27.85,12.47-27.86,27.84-27.86,27.86,12.48,27.86,27.86Z" opacity=".25"></path>
      <path fill="#fff" d="m826.97,1074.21c-7.75,0-14.06-6.31-14.06-14.07s6.31-14.07,14.06-14.07,14.07,6.31,14.07,14.07-6.31,14.07-14.07,14.07Z"></path>
    </g>
    <g>
      <path fill="#ff4a0b" d="m1098.02,1056.62c-1.8-21.32-19.71-38.12-41.49-38.12s-39.67,16.8-41.47,38.12c-.1,1.16-.16,2.34-.16,3.52,0,22.96,18.68,41.64,41.63,41.64s41.65-18.68,41.65-41.64c0-1.19-.06-2.36-.16-3.52Z"></path>
      <path fill="#fff" d="m1084.4,1060.14c0,15.38-12.49,27.85-27.86,27.85s-27.84-12.47-27.84-27.85,12.47-27.86,27.84-27.86,27.86,12.48,27.86,27.86Z" opacity=".25"></path>
      <path fill="#fff" d="m1056.54,1074.21c-7.75,0-14.06-6.31-14.06-14.07s6.31-14.07,14.06-14.07,14.07,6.31,14.07,14.07-6.31,14.07-14.07,14.07Z"></path>
    </g>
    <path fill="#00416d" d="m1146.65,1042.83h-37.46c-2.92-8.87-8.06-16.92-15.06-23.4-10.27-9.5-23.62-14.73-37.6-14.73s-27.32,5.23-37.59,14.73c-7,6.47-12.14,14.52-15.05,23.39h-124.27c-2.92-8.87-8.06-16.92-15.06-23.39-10.27-9.5-23.62-14.73-37.59-14.73s-27.32,5.23-37.59,14.73c-7,6.47-12.14,14.52-15.05,23.39h-23.34c-25.61,0-46.44-20.83-46.44-46.44s20.83-46.44,46.44-46.44h82.88v-13.79h-82.88c-33.21,0-60.23,27.02-60.23,60.23s27.02,60.23,60.23,60.23h20.69s13.81,0,13.81,0c.05-.6.12-1.2.2-1.79h0c.05-.42.12-.83.19-1.25,0-.06.02-.11.02-.17h0c.25-1.55.59-3.07,1.01-4.56,0-.01,0-.03,0-.04.09-.33.2-.65.3-.97.02-.06.04-.13.06-.19,5.31-16.88,21.09-29.16,39.7-29.16,16.79,0,31.27,9.99,37.85,24.34.23.51.45,1.02.67,1.54.02.05.04.09.06.14.2.48.38.97.56,1.46.03.09.07.18.1.27.16.46.32.91.46,1.38.04.14.09.28.13.42.13.42.25.85.37,1.28.05.2.1.39.15.59.1.39.19.77.28,1.16.06.26.11.53.16.79.07.34.14.67.2,1.01.06.35.11.71.17,1.07.04.26.08.52.12.78.08.63.15,1.26.21,1.9h0s139.55,0,139.55,0c.02,0,.04,0,.05,0h7c1.8-21.32,19.7-38.12,41.47-38.12s39.69,16.8,41.49,38.12h8.71s.05,0,.07,0h39.85c3.81,0,6.89-3.09,6.89-6.89s-3.09-6.89-6.89-6.89Z"></path>
    <rect width="208.14" height="13.79" x="757.35" y="723.02" fill="url(#aN)"></rect>
    <path fill="url(#aO)" d="m743.57,723.12v65.41h13.79v-87.2c0-24.34-19.8-44.14-44.14-44.14h-13.08v13.79h13.08c16.74,0,30.36,13.62,30.36,30.36v21.79Z"></path>
    <path fill="url(#o)" d="m879.63,1042.83c-.02-.06-.04-.11-.06-.17,1.36,4.08,2.25,8.36,2.63,12.79.03.39.05.78.08,1.17h35.23s0-13.79,0-13.79h-37.87Z"></path>
    <path fill="url(#aP)" d="m751,1042.83c-25.61,0-46.44-20.83-46.44-46.44h-13.79c0,33.21,27.02,60.23,60.23,60.23h20.69s0,0,0,0c.03-.39.04-.78.08-1.17.37-4.43,1.27-8.72,2.63-12.79-.02.06-.04.11-.06.17h-23.34Z"></path>
    <path fill="url(#aQ)" d="m940.22,1042.83v13.79h61.03c.03-.39.05-.78.08-1.17.37-4.43,1.27-8.72,2.63-12.79-.02.06-.04.12-.06.17h-63.68Z"></path>
    <path fill="url(#aR)" d="m1146.65,1042.83h-37.46c-.02-.06-.04-.12-.06-.18,1.36,4.08,2.25,8.36,2.63,12.79.03.39.05.78.08,1.17h34.81c3.81,0,6.89-3.09,6.89-6.89s-3.09-6.89-6.89-6.89Z"></path>
    <rect width="193.13" height="1.94" x="845.13" y="569.02" fill="url(#aS)" opacity=".5"></rect>
  </g>
  <path fill="#ffb680" d="m679.59,678.65c1.39-3.93-1.36-6.79-6.89-6.08-5.53.7-22.73,2.38-22.73,5.47,0,4.98,1.92,7.73,14.46,7.37,12.45-.36,13.78-2.84,15.17-6.76Z"></path>
  <path fill="url(#aT)" d="m1448.53,277.31c3.92,1.41,4.39,5.35.34,9.19-4.05,3.84-12.31,13.48-17.57,13.48s-5.83-5.73,2.39-15.21c8.16-9.41,10.92-8.86,14.84-7.46Z"></path>
  <path fill="url(#aU)" d="m1394.79,411.52c-3.67.08-9.18,2.02-8.36,4.82,1.13,3.85,6.07,1.67,8.84,4.66,3.84,4.13,18.74.52,18.74.52,0,0-9.38-10.21-19.22-10Z"></path>
  <path fill="url(#aV)" d="m1416.28,424.14c5.5,7.6-3.47,16.23-10.08,18.59-7.71,2.76-27.85-17-22.79-22.85.96-1.12,1.86-1.23,2.22-1.29,1.44,1.46,3.06,2.79,3.39,3.1,6.51-6.26,19.64-8.07,27.26,2.45Z"></path>
  <path fill="url(#aW)" d="m1396.44,563.54c3.54-70.9,20.14-132.5,20.14-132.5l-9.89-5.2s-27.1,64.63-35.88,136.19c0,0-.62,8.61,12.22,10.22,12.1,1.52,13.37-7.99,13.37-7.99.01-.24.02-.48.04-.72Z"></path>
  <g>
    <path fill="url(#aX)" d="m1085.01,703.75c.56.56,1.37.94,2.19.94h130.43c.87,0,1.62-.37,2.19-.94s.94-1.37.94-2.19v-84.29c0-.87-.37-1.62-.94-2.19-.56-.56-1.37-.94-2.19-.94h-130.43c-.87,0-1.62.37-2.19.94-.56.56-.94,1.37-.94,2.19v84.29c0,.81.37,1.62.94,2.19Z"></path>
    <path fill="#fff" d="M1115.1 692.76h-21.85c-.69 0-1.25.56-1.25 1.25v1.44c0 .69.56 1.25 1.25 1.25h21.85c.69 0 1.25-.56 1.25-1.25v-1.44c.06-.69-.5-1.25-1.25-1.25ZM1142.26 692.76h-2.62c-.69 0-1.25.56-1.25 1.25v1.44c0 .69.56 1.25 1.25 1.25h2.62c.69 0 1.25-.56 1.25-1.25v-1.44c.06-.69-.5-1.25-1.25-1.25ZM1131.78 692.76h-8.8c-.69 0-1.25.56-1.25 1.25v1.44c0 .69.56 1.25 1.25 1.25h8.8c.69 0 1.25-.56 1.25-1.25v-1.44c.06-.69-.5-1.25-1.25-1.25ZM1189.09 622.08c-.69 0-1.25.56-1.25 1.25v5.37c0 .69.56 1.25 1.25 1.25h22.48c.69 0 1.25-.56 1.25-1.25v-5.37c0-.69-.56-1.25-1.25-1.25h-22.48ZM1170.3 628.7c0 .69.56 1.25 1.25 1.25h6.99c.69 0 1.25-.56 1.25-1.25v-5.37c0-.69-.56-1.25-1.25-1.25h-6.99c-.69 0-1.25.56-1.25 1.25v5.37Z" opacity=".25"></path>
    <path fill="url(#aY)" d="m1111.11,651.18h-17.67c-.75,0-1.37.62-1.37,1.37v13.67c0,.75.62,1.37,1.37,1.37h17.67c.75,0,1.37-.62,1.37-1.37v-13.67c0-.75-.62-1.37-1.37-1.37Z"></path>
    <path fill="#ff8600" d="m1098.25,656.92v4.87h-6.18v.94h6.18v4.87h.94v-4.87h6.18v4.87h.94v-4.87h6.18v-.94h-6.18v-4.87h6.18v-.94h-6.18v-4.87h-.94v4.87h-6.18v-4.87h-.94v4.87h-6.18v.94h6.18Zm.94,0h6.18v4.87h-6.18v-4.87Z" opacity=".75"></path>
    <path fill="#002d5e" d="m1109.86,686.14v-5.37c0-.69-.56-1.25-1.25-1.25h-15.23c-.69,0-1.25.56-1.25,1.25v5.37c0,.69.56,1.25,1.25,1.25h15.23c.62,0,1.25-.56,1.25-1.25Zm102.96,0v-5.37c0-.69-.56-1.25-1.25-1.25h-15.3c-.69,0-1.25.56-1.25,1.25v5.37c0,.69.56,1.25,1.25,1.25h15.23c.69,0,1.31-.56,1.31-1.25Zm-25.79,0v-5.37c0-.69-.56-1.25-1.25-1.25h-15.23c-.69,0-1.25.56-1.25,1.25v5.37c0,.69.56,1.25,1.25,1.25h15.23c.69,0,1.25-.56,1.25-1.25Zm-25.72,0v-5.37c0-.69-.56-1.25-1.25-1.25h-15.23c-.69,0-1.25.56-1.25,1.25v5.37c0,.69.56,1.25,1.25,1.25h15.23c.69,0,1.25-.56,1.25-1.25Zm-25.72,0v-5.37c0-.69-.56-1.25-1.25-1.25h-15.23c-.69,0-1.25.56-1.25,1.25v5.37c0,.69.56,1.25,1.25,1.25h15.23c.69,0,1.25-.56,1.25-1.25Z"></path>
  </g>
  <path fill="#00416d" d="m899.61,322.98h-92.83c-3.23,0-5.85,2.62-5.85,5.85v144.75c0,3.23,2.62,5.85,5.85,5.85h64.83l14.83,14.83c1.06,1.06,2.87.31,2.87-1.19v-13.64h10.3c3.23,0,5.85-2.62,5.85-5.85v-144.75c0-3.23-2.62-5.85-5.85-5.85Z"></path>
  <g>
    <g>
      <circle cx="831.93" cy="353.99" r="16.21" fill="#ff4a0b"></circle>
      <path fill="#022363" d="m833.79,353.66c-.39-.14-.89-.29-1.49-.43-.59-.13-1.02-.26-1.31-.39-.29-.13-.43-.34-.43-.61s.12-.49.37-.66c.25-.17.63-.25,1.15-.25.37,0,.74.05,1.11.16.07.02.13.04.2.06.3.1.67.29.67.29.12.06.27,0,.32-.12l.38-.93c.05-.13,0-.29-.13-.36,0,0-.37-.2-.71-.31l-.07-.02s0,0,0,0c-.05-.01-.09-.03-.13-.04-.05-.01-.09-.03-.13-.04-.28-.07-.57-.12-.86-.15v-1.27c0-.09-.08-.17-.17-.17h-1.28c-.09,0-.17.08-.17.17v1.32c-.32.05-.6.14-.86.25-.51.22-.88.52-1.13.9-.25.38-.38.8-.38,1.26,0,.53.14.96.42,1.28.28.32.61.55,1,.7.39.14.89.29,1.49.43.39.09.71.18.94.25.23.08.42.18.57.3.15.13.22.28.22.47,0,.26-.12.47-.38.62-.25.16-.64.23-1.16.23-.46,0-.91-.07-1.37-.22-.01,0-.03,0-.04-.01-.05-.02-.1-.04-.16-.06-.4-.14-.85-.41-.85-.41-.12-.07-.26-.03-.32.1l-.42.93c-.06.13,0,.29.11.36,0,0,.48.29.94.45l.07.02h0s.09.03.13.04c.02,0,.04.01.06.02.36.1.73.17,1.11.21v1.34c0,.09.08.17.17.17h1.28c.09,0,.17-.08.17-.17v-1.36c.35-.05.67-.14.96-.26.51-.22.89-.52,1.15-.9.25-.38.38-.79.38-1.25,0-.53-.14-.95-.42-1.27-.28-.31-.61-.54-1-.68Z"></path>
      <path fill="#fff" d="m841.27,350.27l.57-.23c.1-.04.1-.18,0-.23l-1.8-.78c-.06-.03-.13,0-.16.06l-.78,1.8c-.04.1.06.2.16.16l.62-.24s0,0,0,0c.4,1.01.6,2.07.6,3.17,0,2.29-.89,4.44-2.51,6.06-1.62,1.62-3.77,2.51-6.06,2.51s-4.44-.89-6.05-2.51c-1.62-1.62-2.51-3.77-2.51-6.06s.89-4.44,2.51-6.06c1.62-1.62,3.77-2.51,6.05-2.51.41,0,.75-.33.75-.74s-.33-.75-.75-.75c-2.69,0-5.21,1.05-7.11,2.94-1.9,1.9-2.94,4.42-2.94,7.11s1.05,5.21,2.94,7.11,4.42,2.94,7.11,2.94,5.21-1.05,7.11-2.94c1.9-1.9,2.94-4.42,2.94-7.11,0-1.29-.24-2.54-.71-3.72Z" opacity=".5"></path>
    </g>
    <g>
      <rect width="33.61" height="2.54" x="857.05" y="356.21" fill="#009fb7" opacity=".5" rx=".7" ry=".7"></rect>
      <rect width="33.61" height="2.54" x="857.05" y="363.21" fill="#009fb7" opacity=".25" rx=".7" ry=".7"></rect>
      <rect width="24.72" height="2.54" x="857.05" y="342.23" fill="#009fb7" rx=".7" ry=".7"></rect>
      <rect width="33.61" height="2.54" x="857.05" y="349.22" fill="#009fb7" opacity=".75" rx=".7" ry=".7"></rect>
    </g>
  </g>
  <g>
    <g>
      <circle cx="831.93" cy="401.21" r="16.21" fill="#ff4a0b" transform="rotate(-22.5 831.94 401.213)"></circle>
      <path fill="#fff" d="m838.46,394.36c-1.92,0-3.75-.88-5.03-2.41l-.14-.17c-.34-.4-.83-.63-1.35-.63s-1.02.23-1.35.63l-.14.17c-1.28,1.53-3.12,2.4-5.03,2.41-1.07,0-1.95.88-1.95,1.95v6.68c0,2.43,1.2,4.54,3.47,6.12,1.69,1.17,3.55,1.77,4.51,2.02l.12.03.37.1.37-.1.12-.03c.96-.25,2.83-.85,4.51-2.02,2.27-1.58,3.47-3.69,3.47-6.12v-6.68c0-1.07-.87-1.95-1.95-1.95Zm.46,8.63c0,1.94-.95,3.59-2.83,4.9-1.5,1.04-3.17,1.58-4.04,1.8l-.11.03-.12-.03c-.86-.22-2.54-.76-4.04-1.8-1.88-1.31-2.83-2.95-2.83-4.9v-6.68c0-.25.21-.46.46-.46,2.36,0,4.61-1.08,6.17-2.94l.14-.17c.05-.06.13-.1.21-.1s.16.04.21.1l.14.16c1.57,1.87,3.82,2.94,6.17,2.94.25,0,.46.21.46.46v6.68Z" opacity=".5"></path>
      <g>
        <rect width="1.49" height="3.51" x="829.55" y="400.53" fill="#022363" rx=".72" ry=".72" transform="rotate(135 830.296 402.282)"></rect>
        <rect width="1.49" height="6.12" x="831.89" y="398.3" fill="#022363" rx=".72" ry=".72" transform="rotate(-135 832.637 401.355)"></rect>
      </g>
    </g>
    <g>
      <rect width="33.61" height="2.54" x="857.05" y="403.43" fill="#009fb7" opacity=".5" rx=".7" ry=".7"></rect>
      <rect width="33.61" height="2.54" x="857.05" y="410.43" fill="#009fb7" opacity=".25" rx=".7" ry=".7"></rect>
      <rect width="24.72" height="2.54" x="857.05" y="389.45" fill="#009fb7" rx=".7" ry=".7"></rect>
      <rect width="33.61" height="2.54" x="857.05" y="396.44" fill="#009fb7" opacity=".75" rx=".7" ry=".7"></rect>
    </g>
  </g>
  <g>
    <g>
      <circle cx="831.93" cy="448.43" r="16.21" fill="#ff4a0b"></circle>
      <g>
        <path fill="#000241" d="m841.11,442.46h-2.53c-.27,0-.41.33-.22.53l.77.77-4.25,4.25c-.33.33-.86.33-1.19,0l-1.73-1.73c-.42-.42-.98-.69-1.57-.7-.62-.02-1.21.22-1.65.66l-3.12,3.12c-.27.27-.27.72,0,.99.27.27.72.27.99,0l3.09-3.09c.14-.14.31-.24.51-.26.26-.03.52.05.7.24l1.78,1.78c.88.88,2.3.88,3.18,0l4.25-4.25.77.77c.19.19.53.06.53-.22v-2.53c0-.17-.14-.31-.31-.31Z"></path>
        <path fill="#fff" d="m840.72,447.24c-.39,0-.7.31-.7.7v4.16c0,.49-.4.89-.89.89h-2.27v3.08c0,.59-.34.73-.75.31l-3.4-3.4h-7.97c-.49,0-.89-.4-.89-.89v-7.34c0-.49.4-.89.89-.89h11.21c.39,0,.7-.31.7-.7h0c0-.39-.31-.7-.7-.7h-11.21c-1.27,0-2.3,1.03-2.3,2.3v7.34c0,1.27,1.03,2.3,2.3,2.3h7.39l2.99,2.99c.54.54,1.07.65,1.43.65.86,0,1.72-.67,1.72-1.95v-1.68h.87c1.27,0,2.3-1.03,2.3-2.3v-4.16c0-.39-.31-.7-.7-.7Z" opacity=".5"></path>
      </g>
    </g>
    <g>
      <rect width="33.61" height="2.54" x="857.05" y="450.65" fill="#009fb7" opacity=".5" rx=".7" ry=".7"></rect>
      <rect width="33.61" height="2.54" x="857.05" y="457.65" fill="#009fb7" opacity=".25" rx=".7" ry=".7"></rect>
      <rect width="24.72" height="2.54" x="857.05" y="436.67" fill="#009fb7" rx=".7" ry=".7"></rect>
      <rect width="33.61" height="2.54" x="857.05" y="443.66" fill="#009fb7" opacity=".75" rx=".7" ry=".7"></rect>
    </g>
  </g>
</svg>